<svg width="576" height="57" viewBox="0 0 576 57" fill="none" xmlns="http://www.w3.org/2000/svg">
<path d="M0 0H50V50H0V0Z" fill="#E6E6E6"/>
<path d="M6.00009 40.7986L10.6256 37.9947C11.5179 39.5795 12.3296 40.9204 14.2767 40.9204C16.1431 40.9204 17.3199 40.1891 17.3199 37.3446V18H23V37.425C23 43.3177 19.5515 46 14.5202 46C9.97643 46 7.33884 43.6429 6 40.7981" fill="white"/>
<path d="M26 40.0501L30.6813 37.3042C31.9138 39.3431 33.5155 40.8409 36.3489 40.8409C38.7314 40.8409 40.2504 39.6342 40.2504 37.9698C40.2504 35.9728 38.6898 35.2653 36.0614 34.1007L34.6244 33.4763C30.4763 31.6875 27.7245 29.4406 27.7245 24.6975C27.7245 20.3287 31.0102 17 36.1439 17C39.799 17 42.4274 18.29 44.3163 21.6601L39.8398 24.5726C38.854 22.7835 37.7867 22.0763 36.1439 22.0763C34.46 22.0763 33.3922 23.1581 33.3922 24.5726C33.3922 26.32 34.46 27.0274 36.9239 28.1095L38.3612 28.7334C43.2483 30.8556 46 33.0187 46 37.8865C46 43.1294 41.9343 46 36.4722 46C31.1335 46 27.6837 43.4204 26 40.0501Z" fill="white"/>
<path d="M141.81 17.8711C141.07 17.5793 140.29 17.3089 139.476 17.0599C138.762 16.8425 138.021 16.6415 137.257 16.4589C135.251 15.9793 133.083 15.6222 130.815 15.3977C129.824 15.2986 128.813 15.2263 127.788 15.1803C126.884 15.1385 125.968 15.117 125.045 15.117C124.121 15.117 123.205 15.1384 122.3 15.1803C121.274 15.2262 120.263 15.2997 119.272 15.3977C117.004 15.6222 114.837 15.9793 112.831 16.4589C112.067 16.6415 111.326 16.8426 110.612 17.0599C109.798 17.3078 109.018 17.5793 108.278 17.8711C103.445 19.7792 100.781 22.4507 100.781 25.3925C100.781 28.3343 103.445 31.0058 108.278 32.9149C109.018 33.2067 109.797 33.4772 110.611 33.7262C111.325 33.9436 112.066 34.1445 112.83 34.3262C114.836 34.8067 117.004 35.1629 119.273 35.3884C120.264 35.4863 121.275 35.5588 122.301 35.6058C123.205 35.6476 124.121 35.668 125.045 35.668C125.968 35.668 126.883 35.6476 127.787 35.6058C128.813 35.5588 129.823 35.4863 130.815 35.3884C133.083 35.1639 135.252 34.8067 137.258 34.3262C138.022 34.1436 138.763 33.9436 139.477 33.7252C140.291 33.4773 141.07 33.2068 141.81 32.9149C146.645 31.0058 149.307 28.3344 149.307 25.3925C149.307 22.4507 146.645 19.7792 141.81 17.8711ZM145.557 28.1047C144.514 29.0792 142.926 30.0026 140.966 30.7772C140.306 31.0373 139.612 31.2802 138.887 31.5026C138.176 31.7221 137.436 31.9231 136.671 32.1047C135.356 32.418 133.965 32.6751 132.517 32.8741C131.552 33.0078 130.561 33.1149 129.55 33.1936C128.083 33.3109 126.576 33.3701 125.044 33.3701C123.513 33.3701 122.006 33.3109 120.539 33.1946C119.528 33.115 118.536 33.0079 117.571 32.8742C116.123 32.6752 114.732 32.4181 113.417 32.1048C112.652 31.9232 111.912 31.7222 111.201 31.5027C110.476 31.2803 109.782 31.0374 109.122 30.7773C107.162 30.0027 105.574 29.0793 104.531 28.1048C103.568 27.2058 103.079 26.2936 103.079 25.3926C103.079 24.4916 103.568 23.5793 104.531 22.6804C105.574 21.7059 107.162 20.7824 109.122 20.0079C109.782 19.7478 110.476 19.5049 111.201 19.2824C111.912 19.063 112.652 18.862 113.417 18.6804C114.732 18.3671 116.123 18.11 117.571 17.9109C118.536 17.7773 119.528 17.6701 120.539 17.5905C122.006 17.4742 123.513 17.4151 125.044 17.4151C126.576 17.4151 128.083 17.4742 129.55 17.5916C130.561 17.6702 131.552 17.7774 132.517 17.911C133.965 18.1101 135.356 18.3672 136.671 18.6805C137.436 18.8621 138.176 19.0631 138.887 19.2825C139.612 19.505 140.306 19.7479 140.966 20.008C142.926 20.7825 144.514 21.706 145.557 22.6805C146.52 23.5795 147.009 24.4917 147.009 25.3927C147.009 26.2936 146.52 27.2058 145.557 28.1047Z" fill="#E5E5E5"/>
<path d="M139.883 36.329C139.77 35.5417 139.618 34.7306 139.431 33.8999C139.266 33.1717 139.074 32.4287 138.854 31.6742C138.277 29.6939 137.514 27.6342 136.585 25.5525C136.18 24.6427 135.742 23.7285 135.275 22.8157C134.863 22.0096 134.428 21.203 133.971 20.4007C133.513 19.5986 133.041 18.813 132.556 18.0476C132.008 17.1794 131.443 16.3374 130.867 15.5252C129.549 13.666 128.166 11.961 126.755 10.4558C126.218 9.88236 125.676 9.33838 125.134 8.82545C124.515 8.24092 123.893 7.69817 123.273 7.20001C119.221 3.94624 115.581 2.95595 113.026 4.41313C110.47 5.87033 109.469 9.50722 110.205 14.6519C110.317 15.4392 110.468 16.2495 110.655 17.0801C110.82 17.8082 111.013 18.5514 111.233 19.3053C111.81 21.2861 112.574 23.3453 113.502 25.4284C113.908 26.3376 114.346 27.252 114.813 28.1661C115.224 28.9722 115.661 29.7783 116.118 30.5805C116.575 31.3827 117.047 32.1677 117.531 32.9324C118.08 33.7999 118.643 34.6416 119.219 35.4547C120.538 37.314 121.922 39.0208 123.333 40.5255C123.871 41.099 124.411 41.6434 124.955 42.1558C125.573 42.7395 126.194 43.2828 126.814 43.7808C130.867 47.035 134.507 48.0245 137.062 46.5672C139.618 45.11 140.62 41.474 139.883 36.329ZM132.849 44.653C131.486 44.2298 129.897 43.308 128.253 41.9887C127.7 41.5442 127.145 41.0616 126.593 40.5424C126.05 40.0332 125.509 39.4902 124.972 38.9154C124.049 37.9279 123.137 36.847 122.246 35.6878C121.652 34.9155 121.068 34.1078 120.499 33.2683C119.671 32.0527 118.873 30.7727 118.114 29.4422C117.355 28.1117 116.66 26.7731 116.035 25.4417C115.603 24.5239 115.205 23.6092 114.843 22.7043C114.299 21.348 113.833 20.0123 113.454 18.7146C113.232 17.9598 113.041 17.2176 112.879 16.4911C112.713 15.7515 112.58 15.0285 112.48 14.326C112.181 12.2396 112.197 10.4029 112.527 9.01419C112.831 7.73206 113.381 6.85561 114.164 6.40933C114.947 5.96304 115.981 5.93572 117.239 6.32726C118.602 6.75048 120.191 7.67228 121.835 8.99151C122.388 9.43612 122.942 9.91869 123.495 10.4378C124.038 10.947 124.579 11.4901 125.115 12.0649C126.039 13.0524 126.951 14.1332 127.842 15.2924C128.436 16.0648 129.02 16.8733 129.59 17.7123C130.418 18.9286 131.216 20.2084 131.974 21.539C132.733 22.8695 133.428 24.2081 134.052 25.54C134.485 26.4574 134.883 27.3711 135.245 28.276C135.789 29.6324 136.255 30.9679 136.634 32.2658C136.855 33.0206 137.047 33.7627 137.209 34.4893C137.375 35.2289 137.507 35.9519 137.608 36.6543C137.906 38.7408 137.891 40.5775 137.561 41.9662C137.257 43.2483 136.707 44.1248 135.924 44.571C135.141 45.0172 134.107 45.0446 132.849 44.653Z" fill="#E5E5E5"/>
<path d="M125.045 29.9527C127.563 29.9527 129.605 27.9111 129.605 25.3925C129.605 22.874 127.563 20.8323 125.045 20.8323C122.526 20.8323 120.484 22.874 120.484 25.3925C120.484 27.9111 122.526 29.9527 125.045 29.9527Z" fill="#E5E5E5"/>
<path d="M126.696 7.09126C126.079 7.59345 125.462 8.14077 124.846 8.7288C124.306 9.24511 123.768 9.7926 123.235 10.3696C121.834 11.884 120.462 13.5988 119.155 15.4667C118.584 16.2821 118.025 17.1283 117.484 17.9991C117.005 18.767 116.537 19.5554 116.085 20.3606C115.633 21.1657 115.203 21.9752 114.796 22.7849C114.334 23.7015 113.903 24.6192 113.503 25.5311C112.588 27.6188 111.839 29.6825 111.275 31.6665C111.06 32.4223 110.872 33.1667 110.712 33.8959C110.529 34.7274 110.384 35.54 110.276 36.3279C109.573 41.4768 110.598 45.1071 113.163 46.5475C115.728 47.988 119.362 46.9739 123.393 43.6943C124.01 43.1921 124.627 42.6457 125.243 42.0577C125.782 41.5413 126.32 40.9939 126.853 40.4163C128.254 38.9025 129.626 37.1872 130.934 35.3189C131.504 34.503 132.063 33.6567 132.606 32.7856C133.085 32.0177 133.551 31.2288 134.004 30.4237C134.456 29.6185 134.886 28.8104 135.292 28.0016C135.754 27.0845 136.185 26.1682 136.585 25.2555C137.5 23.1677 138.251 21.1022 138.814 19.1177C139.029 18.3619 139.217 17.6181 139.377 16.8883C139.559 16.0577 139.705 15.2456 139.813 14.4577C140.515 9.30744 139.49 5.67805 136.925 4.23752C134.36 2.79711 130.727 3.81018 126.696 7.09126ZM137.453 8.83534C137.792 10.2218 137.82 12.0583 137.535 14.1467C137.439 14.8497 137.311 15.5737 137.15 16.3144C136.993 17.0419 136.806 17.7854 136.59 18.5416C136.219 19.8418 135.762 21.1804 135.227 22.5404C134.87 23.4475 134.479 24.3639 134.052 25.2841C133.436 26.62 132.75 27.9631 132 29.2986C131.25 30.634 130.46 31.9191 129.641 33.1406C129.076 33.9833 128.497 34.7956 127.908 35.5719C127.026 36.7369 126.12 37.8237 125.203 38.8171C124.67 39.3955 124.133 39.9421 123.593 40.4547C123.044 40.9776 122.493 41.4636 121.943 41.9118C120.308 43.2417 118.725 44.1739 117.364 44.6061C116.109 45.0057 115.074 44.9852 114.289 44.5441C113.503 44.1029 112.947 43.23 112.635 41.9499C112.296 40.5634 112.268 38.727 112.553 36.6385C112.649 35.9356 112.777 35.2115 112.938 34.4709C113.095 33.7433 113.282 32.9999 113.498 32.2437C113.869 30.9434 114.326 29.6048 114.862 28.2449C115.218 27.3377 115.61 26.4205 116.036 25.4998C116.652 24.1644 117.339 22.8214 118.089 21.4859C118.839 20.1504 119.628 18.8654 120.449 17.6444C121.012 16.8011 121.591 15.9897 122.18 15.2135C123.063 14.0485 123.968 12.9616 124.885 11.9682C125.418 11.3899 125.956 10.8433 126.495 10.3306C127.044 9.80783 127.596 9.32177 128.146 8.87347C129.781 7.54364 131.363 6.61139 132.724 6.17929C133.979 5.77962 135.014 5.80012 135.8 6.24131C136.585 6.68243 137.141 7.55527 137.453 8.83534Z" fill="#E5E5E5"/>
<g clip-path="url(#clip0)">
<path fill-rule="evenodd" clip-rule="evenodd" d="M475.948 38.1707C475.838 40.9674 473.26 42.1193 472.78 42.1999C472.432 42.2583 472.243 42.2688 472.194 41.9966C472.16 41.8097 472.284 41.7227 472.692 41.4709C473.101 41.2198 474.322 40.3868 474.54 38.8716C474.759 37.3564 473.616 33.7367 467.793 33.0597C465.079 32.7443 462.948 33.124 461.302 33.8062C461.608 34.5948 461.833 35.416 461.868 36.2431C461.943 38.0597 460.684 39.4026 459.374 40.3611C458.611 40.9195 457.794 41.2939 457.114 41.5182C456.567 41.7484 455.841 41.9832 455.326 41.8798C454.19 41.6514 453.585 40.6479 454.358 38.4335C454.776 37.2361 455.98 35.4108 457.922 33.8401C457.478 32.9335 456.985 32.0089 456.734 31.1613C456.24 29.4867 456.089 28.4744 456.089 28.4744C456.089 28.4744 454.487 31.777 452.422 34.7828C452.302 34.9569 452.183 35.1286 452.064 35.2986C452.47 36.2355 452.791 37.2279 452.833 38.2291C452.908 40.0457 452.119 41.4178 450.809 42.3763C450.099 42.8956 449.343 43.2554 448.693 43.4838C448.277 43.6643 447.432 43.9604 446.233 44.041C445.574 44.0854 444.944 44.0439 444.59 43.7782C444.105 43.4143 444.045 42.9622 444.296 42.3471C444.509 41.8249 446.1 40.0171 447.435 38.4335C447.803 37.9972 448.155 37.5498 448.468 37.1356C448.464 37.1251 448.462 37.1193 448.462 37.1193C448.462 37.1193 448.703 36.808 449.096 36.2659C448.608 35.2215 447.99 34.1327 447.699 33.1473C447.205 31.4727 447.054 30.4604 447.054 30.4604C447.054 30.4604 445.431 34.6018 443.739 37.9078C442.43 40.4668 441.557 42.0182 441.163 42.6987C441.159 42.7168 441.158 42.7268 441.158 42.7268C441.158 42.7268 441.1 42.8255 440.998 42.9803C440.948 43.0644 440.923 43.1064 440.923 43.1064C440.923 43.1064 440.922 43.1029 440.921 43.0953C440.482 43.7402 439.497 45.0048 438.518 45.0048C435.829 45.0048 436.816 39.5726 436.816 39.5726C436.816 39.5726 436.03 41.5837 435.144 43.3109C434.422 44.7192 433.765 45.9102 432.328 45.9102C431.913 45.9102 431.258 45.8979 430.715 45.3845C429.479 44.218 428.534 41.2531 428.72 38.9592C428.877 37.0066 429.18 35.6549 429.593 34.527C428.855 34.9271 428.003 35.4002 427.136 35.9073C426.691 36.1672 426.242 36.4312 425.802 36.6906C425.816 36.7168 425.832 36.7425 425.845 36.7688C426.95 38.8932 427.244 43.548 424.837 47.1222C422.429 50.6976 417.949 52.8734 413.583 51.6637C412.174 51.2735 410.045 48.374 411.882 44.3331C413.5 40.7706 419.972 37.3991 421.676 36.5597C421.819 36.4809 421.976 36.3944 422.144 36.3021C418.745 33.343 410.256 29.3494 409.066 23.2174C408.731 21.4914 409.543 17.3611 414.639 12.6158C418.925 8.62455 424.886 5.56789 430.392 3.62046C439.643 0.34826 449.419 2.27758 450.923 8.14733C452.4 13.9184 447.368 20.8231 440.923 23.305C435.169 25.5212 430.411 25.1701 428.456 24.5317C426.234 23.8056 424.93 22.3465 424.613 21.5235C424.489 21.2011 424.273 20.6596 424.613 20.4721C424.822 20.357 424.905 20.3845 425.464 20.9978C425.995 21.5802 428.128 23.1438 432.181 22.6917C442.818 21.5048 449.225 13.2758 447.201 8.84826C445.784 5.74896 437.584 4.3506 427.341 9.43237C414.838 15.6356 414.159 20.7495 414.053 22.6917C413.759 28.034 420.675 30.8448 424.416 34.8185C424.465 34.8705 424.513 34.923 424.56 34.9756C425.261 34.5913 426.001 34.1859 426.725 33.7899C428.611 32.7577 430.39 31.7916 431.22 31.3407C432.537 29.4365 435.21 27.3354 437.139 27.3354C440.224 27.3354 439.163 31.7455 439.163 31.7455C439.163 31.7455 439.226 31.5428 439.31 31.541C439.396 31.5393 439.736 30.9604 440.688 31.3074C441.668 31.6648 441.445 32.3477 441.451 32.4172C441.463 32.5521 440.295 36.4738 439.808 38.9884C439.577 40.1882 439.711 41.062 439.779 41.062C439.875 41.062 440.071 40.7571 440.252 40.4289C440.249 40.423 440.248 40.4195 440.248 40.4195C440.248 40.4195 440.385 40.1719 440.614 39.725C440.643 39.666 440.659 39.631 440.659 39.631C440.659 39.631 440.66 39.6327 440.661 39.6339C440.929 39.1088 441.308 38.3395 441.744 37.3821C442.6 35.5036 445.868 28.2542 446.145 27.4522C446.421 26.6502 446.566 25.8208 446.702 25.4663C446.838 25.1111 447.992 24.843 449.342 24.8529C450.692 24.8629 450.829 25.4347 450.838 25.5539C450.847 25.673 450.195 27.2636 450.046 28.3868C449.897 29.5101 450.04 30.0726 450.163 31.0153C450.244 31.6339 450.632 32.4166 451.089 33.3039C452.485 31.0305 454.943 26.6847 455.18 25.4663C455.341 24.6339 455.601 23.8348 455.737 23.4803C455.873 23.1251 457.027 22.857 458.377 22.867C459.726 22.8769 459.864 23.4487 459.873 23.5679C459.882 23.687 459.23 25.2776 459.081 26.4008C458.932 27.5241 459.075 28.0866 459.198 29.0293C459.304 29.8372 459.933 30.923 460.554 32.1578C462.253 31.3243 464.28 30.7647 466.62 30.7525C472.672 30.7203 476.089 34.6205 475.948 38.1707ZM450.015 38.1946C450.015 38.1415 450.014 38.0872 450.01 38.0328C449.59 38.5796 449.204 39.0679 448.871 39.4797C448.299 40.1882 446.847 41.7431 446.847 41.7431C446.847 41.7431 446.641 41.9388 446.73 41.9914C446.851 42.0638 447.112 41.9703 447.397 41.822C448.203 41.3161 450.011 40.058 450.015 38.1946ZM437.49 30.145C437.208 29.6695 436.049 30.0533 434.996 31.2256C434.342 31.954 433.229 33.8313 432.708 35.402C431.673 38.5229 432.12 41.6935 432.855 41.8856C433.71 42.1094 435.116 37.9376 435.788 36.3074C436.209 35.2852 437.849 30.7507 437.49 30.145ZM423.735 37.6689C423.633 37.7297 423.533 37.7893 423.437 37.8471L423.438 37.85C423.438 37.85 423.391 37.8763 423.308 37.9236C422.806 38.2227 422.393 38.4703 422.112 38.6386C420.876 39.4073 419.014 40.6549 417.572 42.0101C415.204 44.2326 414.71 47.3167 415.958 48.0375C417.113 48.704 419.808 47.9125 421.737 45.8173C423.761 43.6187 424.597 40.8331 423.735 37.6689ZM459.051 36.2087C459.053 35.8576 458.976 35.4797 458.85 35.086C457.762 36.0434 457.136 37.0451 456.862 37.6397C456.163 39.1555 456.128 39.6421 456.34 39.7922C457.356 39.4289 459.036 38.5533 459.051 36.2087Z" fill="#E5E5E5"/>
</g>
<g clip-path="url(#clip1)">
<path d="M551 0L576 14.1353V42.4123L551 56.5476L526 42.4123V14.1353L551 0Z" fill="white"/>
<path d="M571.536 41.4373L551.827 52.5828V43.904L564.107 37.1495L571.536 41.4373ZM572.886 40.2168V16.912L565.677 21.077V36.0582L572.886 40.2168ZM530.386 41.4373L550.096 52.5828V43.904L537.809 37.1495L530.386 41.4373ZM529.036 40.2168V16.912L536.245 21.077V36.0582L529.036 40.2168ZM529.882 15.4009L550.096 3.97131V12.3595L537.143 19.482L537.04 19.5402L529.882 15.4009ZM572.04 15.4009L551.827 3.97131V12.3595L564.779 19.4756L564.882 19.5337L572.04 15.4009Z" fill="#E5E5E5"/>
<path d="M550.096 41.928L537.977 35.2639V22.0714L550.096 29.0648V41.928ZM551.827 41.928L563.946 35.2704V22.0714L551.827 29.0648V41.928ZM538.797 20.5474L550.961 13.864L563.125 20.5474L550.961 27.5667L538.797 20.5474Z" fill="#E5E5E5"/>
</g>
<g clip-path="url(#clip2)">
<path d="M314.148 3.6552L317.393 45.1704C317.442 45.7938 317.864 46.3254 318.46 46.5144L335.536 51.9283C335.838 52.024 336.162 52.024 336.464 51.9283L353.54 46.5144C354.136 46.3254 354.558 45.7938 354.607 45.1704L357.852 3.6552C357.922 2.76264 357.216 2 356.321 2H315.679C314.784 2 314.079 2.76264 314.148 3.6552ZM349.53 16.536H328.381L329.019 22.4217H349.07L347.758 39.2009L336 42.9288L324.242 39.2009L323.557 30.4347H329.728V34.7347L336.165 36.4622L342.563 34.7347L343.06 27.8818H323.357L322.049 11.1466H349.951L349.53 16.536Z" fill="#E5E5E5"/>
</g>
<path d="M200 9.86449H214.261V14.0992H200V9.86449ZM200 2H214.261V6.23471H200V2ZM225.586 17.6685H200V21.9032H224.628C227.324 21.9032 233.616 21.9637 235.953 25.7749V23.4156C234.814 19.6648 231.459 17.6685 225.586 17.6685ZM225.646 25.5329H200V29.7676H224.628C230.62 29.7676 234.395 30.0096 235.953 30.8566V28.9812C234.755 26.0169 229.721 25.5329 225.646 25.5329ZM225.586 45.4965H200V41.2618H224.628C227.324 41.2618 233.616 41.2014 235.953 37.3902V39.7494C234.814 43.5003 231.459 45.4965 225.586 45.4965ZM225.646 37.6322H200V33.3975H224.628C230.62 33.3975 234.395 33.1555 235.953 32.3084V34.1839C234.755 37.1481 229.721 37.6322 225.646 37.6322ZM242.185 52.8167H261V50.2152H242.724C241.106 50.2152 237.271 50.1548 235.893 47.9164V49.3684C236.552 51.6066 238.589 52.8167 242.185 52.8167ZM242.125 48.0374H260.94V45.4361H242.724C239.069 45.4361 236.792 45.3151 235.893 44.7707V45.9201C236.612 47.735 239.668 48.0374 242.125 48.0374Z" fill="#E5E5E5"/>
<defs>
<clipPath id="clip0">
<rect width="67" height="50" fill="white" transform="translate(409 2)"/>
</clipPath>
<clipPath id="clip1">
<rect width="50" height="56.5476" fill="white" transform="translate(526)"/>
</clipPath>
<clipPath id="clip2">
<rect width="50" height="50" fill="white" transform="translate(311 2)"/>
</clipPath>
</defs>
</svg>
