<svg width="1163" height="522" fill="none" xmlns="http://www.w3.org/2000/svg"><path d="M1071.69 104.659l-2.27-9.453a2.795 2.795 0 00-1.84-2.198l-5.53-2.242a64.023 64.023 0 00-7.97-14.137l-.15-7.807c.11-1.1-.28-2.188-1.06-2.974l-6.14-5.47c-.28-.263-.64-.43-1.03-.478v-.053a.426.426 0 00-.16-.259.41.41 0 00-.31-.06c-.05.01-5.5 1.063-9.63 1.986a.404.404 0 00-.31.34c0 .077.01.155.05.224a26.071 26.071 0 00-7.11-1.434l-4.05-6.288a2.298 2.298 0 00-1.71-1.403c0-.042.02-.084 0-.127a.402.402 0 00-.45-.255l-15.82 3.463c-.03 0-.13.021-.16.021l-6.468 1.731-.212.085a1.848 1.848 0 00-.266.18c-.042.033-.095.065-.149.107a.368.368 0 00-.105.074 2.543 2.543 0 00-.351.468.586.586 0 00-.075.148 2.518 2.518 0 00-.201.532 1.877 1.877 0 00-.075.255 4.116 4.116 0 00-.074.775l-.69 7.382c-.574.372-1.169.796-1.817 1.306l-.318.245a29.34 29.34 0 00-1.817 1.625.44.44 0 00-.106.085l-.276.287c-.245.244-.488.499-.733.754-.159.17-.319.34-.478.52-.234.266-.467.542-.701.829l-.074.085c-.053.063-.117.127-.17.201l-8.37 1.827-.159.011-.043.021-.191.064c-.01.01-.085.053-.095.064-.11.056-.213.123-.308.202l-.266.01v.245c-.042.053-.075.106-.128.18-.01.01-.063.074-.074.085a3.087 3.087 0 00-.244.5l-2.911 7.891-.254.69.084-.01c-.01.064-.031.127-.042.202 0 .106 0 .223.011.34v.265c0 .096 0 .18.011.308.033.268.093.531.18.786 0 .022.01.032.01.053.033.085.075.17.096.223a2.854 2.854 0 00.255.542c.021.042.043.085.053.085l3.367 6.82a65.417 65.417 0 00-.605 16.239l-3.803 4.695a2.143 2.143 0 00-.406.549c-.002.002-.005.004-.008.004v.01a3.114 3.114 0 00-.265.722l-.043.234c-.021.17-.032.329-.053.563 0 .053.011.106.011.17l.01.106c-.002.092.002.185.011.276.019.172.048.342.085.51h.01l2.263 9.464.085.287c.032.085.063.17.095.244l.064.128c0 .01.042.106.042.116.022.043.043.096.043.096.011.032.042.106.053.138.113.194.241.379.383.552 0 .011.106.128.106.138.137.141.282.272.435.393.063.035.124.074.181.117.185.112.385.198.594.255l5.396 2.178a62.794 62.794 0 007.871 13.956l.138 7.648c-.029.282-.025.568.011.849l.01.107c.011.053.021.095.032.095.02.183.056.365.107.542v.042l.053.096c.031.085.063.159.116.297l.054.117a1.179 1.179 0 00.148.319c.011.011.064.106.075.117.035.043.067.089.095.138.01.021.021.032.032.053l-.117.021.574.51.01.011.011.01.138.128 5.992 5.342c.2.163.41.299.65.404.01.011.02.011.03.021.23.096.47.147.72.149.12.001.24-.013.35-.043l7.92-1.72 1.95-.425a27.01 27.01 0 006.9 1.413l3.93 6.096.07.117c.05.093.1.181.17.266l.11.17c.06.074.11.148.16.212.09.1.19.193.3.276l.31-.255-.2.351c.05.059.12.109.19.149.15.09.31.165.47.223.07.03.14.054.21.074.12.025.25.039.38.042.12-.002.23-.017.35-.042l15.9-3.452a.4.4 0 00.32-.393c0-.029 0-.058-.01-.085 0-.011-.01-.011-.01-.021l6.08-1.625a2.142 2.142 0 001.27-2.273l.72-7.573a28.421 28.421 0 006.23-5.587l9.08-1.976-.06-.244 1.15-.245-.68-.127c.3-.228.52-.538.65-.892l2.92-7.903a3.75 3.75 0 00-.42-3.176l-3.39-6.914a66.478 66.478 0 00.6-16.432l3.86-4.78c.69-.77.92-1.848.61-2.836zM1065.22 17.185c.76 4.957 1.46 9.687.06 14.614-1.41 4.968-3.24 9.815-4.57 14.812-1.1 4.114-1.89 9.346 1.22 12.774 3.24 3.575 8.01 2.639 12.19 1.722 0 0-1.54 4.422-1.37 4.954.18.53-3 8.674-3 8.674s12.39 4.957 15.57 2.655c3.19-2.301 2.84-7.789 2.84-7.789s-3.37-11.507-1.6-18.234c-1.94-.177 0-13.808 0-13.808l2.84-18.41M235.333 512.52c-.117-9.115 2.139-17.876 3.629-25.314l-13.011-.797 3.452 30.714 5.93-4.603zM331.37 510.042c-.117-9.115-2.818-24.604-1.328-32.042l-14.516 2.479 9.294 30.625 6.55-1.062z" fill="#fff"/><path d="M1066.01 147.466l-15.9 3.457c-.27.056-.56.029-.82-.078l15.9-3.456c.26.107.55.134.82.077" fill="#626364"/><path d="M1066.01 147.466l-15.9 3.457c-.27.056-.56.029-.82-.078l15.9-3.456c.26.107.55.134.82.077" stroke="#313D3F" stroke-width="1.118"/><path clip-rule="evenodd" d="M1066.01 147.466l-15.9 3.457c-.27.056-.56.029-.82-.077l15.9-3.457c.26.107.55.134.82.077zM1065.19 147.388l-15.9 3.458-5.58-1.07 15.9-3.457 5.58 1.069z" stroke="#313D3F" stroke-width="1.118"/><path clip-rule="evenodd" d="M1044.9 59.581l.06-.014s-5.45 1.054-9.63 1.978c2.97 1.435 4.42 2.292 4.42 2.292l4.41-3.759c.07-.079.15-.15.23-.213.08-.061.16-.115.24-.16.08-.051.17-.093.27-.124z" stroke="#313D3F" stroke-width="1.118" stroke-linejoin="round"/><path d="M1049.72 113.658v.594c0 .558-.02 1.116-.04 1.674a31.564 31.564 0 01-.37 3.218c-.36 2.211-1 4.366-1.91 6.413a20.336 20.336 0 01-1.67 2.992c-.42.634-.88 1.237-1.38 1.805-.12.142-.24.261-.37.392-.18.178-.36.356-.55.534v.012c-.17.154-.36.321-.53.475-.19.154-.4.321-.6.475-.08.059-.16.107-.25.178a.579.579 0 01-.14.107c-.27.19-.56.38-.85.558-.09.048-.17.095-.25.142-.18.107-.37.203-.55.297-.22.118-.44.221-.68.309-.52.229-1.07.419-1.62.57-.26.071-.51.131-.78.178l-15.67 3.42c.19-.048.36-.095.55-.142.55-.147 1.1-.338 1.62-.57.42-.176.83-.378 1.23-.606.08-.044.17-.096.25-.154.33-.188.65-.398.96-.63.09-.071.21-.154.32-.237.38-.289.74-.598 1.09-.926.32-.297.62-.594.91-.927.14-.154.27-.308.4-.463 2.83-3.42 4.58-8.359 4.94-13.964.02-.558.04-1.116.04-1.675.02-.748 0-1.508-.04-2.268-.02-.261-.04-.522-.06-.759-.04-.523-.07-1.045-.13-1.568-.06-.463-.13-.95-.21-1.425a15.42 15.42 0 01-.1-.724 48.13 48.13 0 00-.47-2.173c-.2-.784-.4-1.568-.64-2.316-.03-.118-.07-.225-.1-.332a31.41 31.41 0 00-.91-2.458c-.09-.226-.19-.463-.28-.701-.38-.855-.77-1.722-1.2-2.529a29.11 29.11 0 00-.82-1.46 23.61 23.61 0 00-9.51-9.263c.12-.166.25-.325.39-.475.28-.322.58-.627.9-.914a12.57 12.57 0 015.48-3.135c.18-.047.35-.095.54-.13.23-.052.45-.091.68-.12.41-.07.82-.118 1.24-.142.73-.037 1.46-.01 2.19.083.53.075 1.05.178 1.57.309v-.012c.1.026.21.058.31.095.2.049.41.108.6.178.1.022.2.05.3.083a16.034 16.034 0 012.35 1.057 24.107 24.107 0 018.86 8.93c.29.487.56.962.82 1.46.43.808.82 1.663 1.2 2.53.14.297.26.594.38.902.13.332.26.665.38 1.009.14.404.28.82.41 1.235.02.043.04.086.05.131.03.036.04.077.05.119.01.028.01.056.02.083.02.03.02.062.03.095.22.724.44 1.472.61 2.232.34 1.397.6 2.813.76 4.24v.083c.04.261.06.522.09.783.02.25.05.499.07.749l.03.498c.01.1.01.199.03.297 0 .119.01.238.01.356.01.44.02.879.02 1.318z" fill="#fff" stroke="#313D3F" stroke-width="1.118"/><path clip-rule="evenodd" d="M1049.72 113.658v.594c0 .558-.02 1.116-.04 1.674a31.564 31.564 0 01-.37 3.218c-.36 2.211-1 4.366-1.91 6.413a20.336 20.336 0 01-1.67 2.992c-.42.634-.88 1.237-1.38 1.805-.12.142-.24.261-.37.392-.18.178-.36.356-.55.534v.012c-.17.154-.36.321-.53.475-.19.154-.4.321-.6.475-.08.059-.16.107-.25.178a.579.579 0 01-.14.107c-.27.19-.56.38-.85.558-.09.048-.17.095-.25.142-.18.107-.37.203-.55.297-.22.118-.44.221-.68.309-.52.229-1.07.419-1.62.57-.26.071-.51.131-.78.178l-15.67 3.42c.19-.048.36-.095.55-.142.55-.147 1.1-.338 1.62-.57.42-.176.83-.378 1.23-.606.08-.044.17-.096.25-.154.33-.188.65-.398.96-.63.09-.071.21-.154.32-.237.38-.289.74-.598 1.09-.926.32-.297.62-.594.91-.927.14-.154.27-.308.4-.463 2.83-3.42 4.58-8.359 4.94-13.964.02-.558.04-1.116.04-1.675.02-.748 0-1.508-.04-2.268-.02-.261-.04-.522-.06-.759-.04-.523-.07-1.045-.13-1.568-.06-.463-.13-.95-.21-1.425a15.42 15.42 0 01-.1-.724 48.13 48.13 0 00-.47-2.173c-.2-.784-.4-1.568-.64-2.316-.03-.118-.07-.225-.1-.332a31.41 31.41 0 00-.91-2.458c-.09-.226-.19-.463-.28-.701-.38-.855-.77-1.722-1.2-2.529a29.11 29.11 0 00-.82-1.46 23.61 23.61 0 00-9.51-9.263c.12-.166.25-.325.39-.475.28-.322.58-.627.9-.914a12.57 12.57 0 015.48-3.135c.18-.047.35-.095.54-.13.23-.052.45-.091.68-.12.41-.07.82-.118 1.24-.142.73-.037 1.46-.01 2.19.083.53.075 1.05.178 1.57.309v-.012c.1.026.21.058.31.095.2.049.41.108.6.178.1.022.2.05.3.083a16.034 16.034 0 012.35 1.057 24.107 24.107 0 018.86 8.93c.29.487.56.962.82 1.46.43.808.82 1.663 1.2 2.53.14.297.26.594.38.902.13.332.26.665.38 1.009.14.404.28.82.41 1.235.02.043.04.086.05.131.03.036.04.077.05.119.01.028.01.056.02.083.02.03.02.062.03.095.22.724.44 1.472.61 2.232.34 1.397.6 2.813.76 4.24v.083c.04.261.06.522.09.783.02.25.05.499.07.749l.03.498c.01.1.01.199.03.297 0 .119.01.238.01.356.01.44.02.879.02 1.318zM1041.77 166.989a1.256 1.256 0 01-.19-.077 1.773 1.773 0 01-.37-.159 1.862 1.862 0 01-.2-.174 2.053 2.053 0 01-.3-.273c-.07-.076-.12-.174-.18-.261-.11-.134-.2-.276-.28-.424l-14.97 3.255 14.97-3.258-4.05-6.3-15.9 3.459 4.05 6.3h0l.06.109c.06.109.14.215.22.315.05.09.11.178.18.262.09.1.19.192.3.274.07.062.13.119.2.173.12.067.24.121.37.159.06.03.12.055.19.077.19.042.38.044.57.004l15.9-3.456a1.35 1.35 0 01-.57-.005zM1021.75 52.611c-.03.012-.05.012-.06.024l-6.41 1.71c-.15.049-.29.126-.41.226-.05.029-.1.06-.15.095-.14.13-.26.277-.36.439-.02.036-.03.083-.06.119-.07.16-.13.328-.18.498a1.07 1.07 0 00-.04.179c-.06.241-.08.488-.07.736l-.72 7.564-15.897 3.455.713-7.564a3.71 3.71 0 01.071-.736c.01-.06.026-.12.047-.178.044-.173.108-.34.19-.499a.418.418 0 01.048-.106c.086-.15.19-.29.309-.416.011-.012.035-.012.047-.024a.714.714 0 01.154-.107c.066-.059.137-.11.214-.154.071-.024.131-.048.19-.072l6.414-1.71c.02-.009.04-.013.06-.011l15.9-3.468z" stroke="#313D3F" stroke-width="1.118" stroke-linejoin="round"/><path d="M1024.32 155.774a28.322 28.322 0 0011.88 3.547M1024.32 155.774a28.322 28.322 0 0011.88 3.547l-15.9 3.457a28.336 28.336 0 01-11.88-3.547" stroke="#313D3F" stroke-width="1.118" stroke-linejoin="round"/><path clip-rule="evenodd" d="M1005.82 71.354c.24-.323.48-.642.73-.953.14-.175.28-.345.42-.516.23-.277.47-.55.7-.817.16-.174.32-.344.48-.514.23-.253.47-.502.72-.745.14-.14.28-.278.42-.415.57-.543 1.15-1.061 1.75-1.548.1-.083.2-.16.31-.24.63-.5 1.28-.977 1.95-1.41l-15.901 3.457c-.67.433-1.317.91-1.951 1.409-.103.08-.207.158-.308.24-.6.487-1.183 1.003-1.748 1.548-.051.048-.106.089-.156.138-.092.09-.179.188-.27.28a29.677 29.677 0 00-1.89 2.072c-.144.172-.289.343-.43.52-.247.308-.486.626-.724.946-.115.154-.233.304-.346.462-.346.482-.683.976-1.011 1.481l9.612-4.517 6.283 1.06a34.705 34.705 0 011.36-1.938z" stroke="#313D3F" stroke-width="1.118" stroke-linejoin="round"/><path clip-rule="evenodd" d="M1019.11 160.045l-15.9 3.457a1.605 1.605 0 01-1.4-.452l15.9-3.456c.37.369.89.537 1.4.451z" stroke="#313D3F" stroke-width="1.118"/><path d="M1019.11 160.04l-15.9 3.468a1.64 1.64 0 01-1.4-.452l-6.138-5.474 15.898-3.467 6.14 5.474c.36.374.89.543 1.4.451z" fill="#fff" stroke="#313D3F" stroke-width="1.118"/><path d="M1011.57 154.115l-15.899 3.467a3.09 3.09 0 01-.439-.522 1.641 1.641 0 00-.107-.155c-.024-.047-.059-.095-.095-.154-.047-.095-.083-.214-.131-.321a2.21 2.21 0 01-.095-.237.18.18 0 01-.035-.083 2.772 2.772 0 01-.119-.546 1.606 1.606 0 01-.035-.131v-.012a3.739 3.739 0 01-.012-.819l-.143-7.814 15.9-3.455.14 7.813c-.02.277-.02.556.01.831.02.048.03.084.04.131.03.214.08.424.15.629.03.081.06.161.1.238a4 4 0 00.23.475 2.924 2.924 0 00.54.665z" fill="#fff" stroke="#313D3F" stroke-width="1.118"/><path clip-rule="evenodd" d="M1019.11 160.04l-15.9 3.468a1.64 1.64 0 01-1.4-.452l-6.138-5.474 15.898-3.467 6.14 5.474c.36.374.89.543 1.4.451z" stroke="#313D3F" stroke-width="1.118" stroke-linejoin="round"/><path clip-rule="evenodd" d="M1011.57 154.115l-15.899 3.467a3.09 3.09 0 01-.439-.522 1.641 1.641 0 00-.107-.155c-.024-.047-.059-.095-.095-.154-.047-.095-.083-.214-.131-.321a2.21 2.21 0 01-.095-.237.18.18 0 01-.035-.083 2.772 2.772 0 01-.119-.546 1.606 1.606 0 01-.035-.131v-.012a3.739 3.739 0 01-.012-.819l-.143-7.814 15.9-3.455.14 7.813c-.02.277-.02.556.01.831.02.048.03.084.04.131.03.214.08.424.15.629.03.081.06.161.1.238a4 4 0 00.23.475 2.924 2.924 0 00.54.665z" stroke="#313D3F" stroke-width="1.118" stroke-linejoin="round"/><path d="M998.058 72.133c-.024.012-.036.012-.059.024a1.984 1.984 0 00-.238.095c-.11.06-.213.132-.308.214-.024.023-.048.035-.06.047-.063.068-.122.14-.178.214-.024.047-.059.071-.083.119a1.689 1.689 0 00-.202.415l-2.921 7.909-15.9 3.455 2.921-7.909c.053-.144.121-.284.202-.415.024-.036.06-.071.083-.107a1.75 1.75 0 01.178-.225.01.01 0 01.004-.009.01.01 0 01.008-.003c.012-.012.036-.024.048-.036.095-.082.198-.153.308-.214.024-.011.036-.023.06-.035a1.03 1.03 0 01.178-.06.106.106 0 01.059-.012l15.9-3.467z" fill="#fff" stroke="#313D3F" stroke-width="1.118"/><path clip-rule="evenodd" d="M998.058 72.133c-.024.012-.036.012-.059.024a1.984 1.984 0 00-.238.095c-.11.06-.213.132-.308.214-.024.023-.048.035-.06.047-.063.068-.122.14-.178.214-.024.047-.059.071-.083.119a1.689 1.689 0 00-.202.415l-2.921 7.909-15.9 3.455 2.921-7.909c.053-.144.121-.284.202-.415.024-.036.06-.071.083-.107a1.75 1.75 0 01.178-.225.01.01 0 01.004-.009.01.01 0 01.008-.003c.012-.012.036-.024.048-.036.095-.082.198-.153.308-.214.024-.011.036-.023.06-.035a1.03 1.03 0 01.178-.06.106.106 0 01.059-.012l15.9-3.467z" stroke="#313D3F" stroke-width="1.118" stroke-linejoin="round"/><path clip-rule="evenodd" d="M997.821 91.263l-15.9 3.455-3.42-6.934c-.048-.071-.083-.143-.131-.214a3.703 3.703 0 01-.154-.38 1.537 1.537 0 01-.095-.214.212.212 0 00-.024-.06 4.54 4.54 0 01-.154-.7v-.011a3.297 3.297 0 010-.345c0-.154-.024-.32-.012-.475.023-.26.082-.517.178-.76l15.9-3.456c-.097.243-.157.5-.178.76-.008.159-.004.318.012.475-.006.115-.006.23 0 .345.035.262.095.52.178.772.027.073.058.144.095.213.075.207.171.406.285.594l3.42 6.935z" stroke="#313D3F" stroke-width="1.118" stroke-linejoin="round"/><path d="M1010.36 143.332l-15.902 3.457a62.608 62.608 0 01-7.963-14.132l15.895-3.457a62.46 62.46 0 007.97 14.132z" fill="#fff"/><path clip-rule="evenodd" d="M1010.36 143.332l-15.902 3.457a62.608 62.608 0 01-7.963-14.132l15.895-3.457a62.46 62.46 0 007.97 14.132z" stroke="#313D3F" stroke-width="1.118"/><path clip-rule="evenodd" d="M1010.36 143.332l-15.902 3.457a62.608 62.608 0 01-7.963-14.132l15.895-3.457a62.46 62.46 0 007.97 14.132z" stroke="#313D3F" stroke-width="1.118" stroke-linejoin="round"/><path d="M997.214 107.685l-15.899 3.457a65.116 65.116 0 01.606-16.428l15.899-3.457a65.161 65.161 0 00-.606 16.428" stroke="#313D3F" stroke-width="1.118" stroke-linejoin="round"/><path clip-rule="evenodd" d="M997.214 107.685l-15.899 3.457a65.116 65.116 0 01.606-16.428l15.899-3.457a65.161 65.161 0 00-.606 16.428zM1002.39 129.2l-15.895 3.456-5.545-2.241 15.899-3.456 5.541 2.241zM996.847 126.958l-15.9 3.455a1.7 1.7 0 01-.534-.225c-.048-.036-.095-.06-.143-.095a2.536 2.536 0 01-.38-.345.8.8 0 00-.095-.107 4.178 4.178 0 01-.344-.51c-.012-.024-.012-.048-.024-.071-.036-.072-.059-.155-.095-.226-.047-.119-.107-.226-.154-.356l-.072-.262-2.268-9.452 15.9-3.455 2.268 9.452c.063.21.139.416.226.618.036.071.059.154.095.225.106.204.229.399.368.582a.742.742 0 01.095.107c.118.124.245.239.38.344.048.036.095.059.143.095.164.105.344.181.534.226z" stroke="#313D3F" stroke-width="1.118" stroke-linejoin="round"/><path clip-rule="evenodd" d="M1049.31 119.144c.18-1.065.3-2.139.37-3.218.02-.558.04-1.116.04-1.674v-.594c0-.439-.01-.878-.02-1.318-.01-.213-.02-.427-.04-.653l-.03-.499c-.01-.249-.04-.498-.07-.748-.03-.285-.05-.57-.09-.867a33.948 33.948 0 00-.76-4.239c-.17-.76-.39-1.496-.61-2.232-.01-.033-.01-.065-.03-.095-.02-.059-.04-.131-.07-.202a.654.654 0 00-.05-.131c-.11-.415-.26-.831-.41-1.235-.12-.344-.25-.676-.38-1.009-.12-.309-.24-.606-.38-.902a32.84 32.84 0 00-2.02-3.99 24.106 24.106 0 00-8.86-8.93c-.5-.276-1.02-.525-1.55-.748-.26-.107-.54-.202-.8-.297-.1-.037-.2-.069-.3-.095-.19-.07-.4-.13-.6-.178a14.711 14.711 0 00-1.88-.392c-.73-.093-1.46-.12-2.19-.083-.42.012-.83.06-1.24.143-.23.028-.45.067-.68.118-.19.036-.36.084-.54.131-2.06.56-3.95 1.64-5.48 3.135a11.9 11.9 0 00-.9.914c-.14.15-.27.309-.39.475-2.84 3.42-4.6 8.372-4.94 13.941-.04.57-.06 1.128-.06 1.686-.03 3 .31 5.992 1.02 8.906.69 2.905 1.74 5.71 3.14 8.348.25.498.53.973.8 1.448a23.628 23.628 0 009.53 9.286c.55.266 1.11.5 1.68.701.4.146.81.269 1.23.368 1.77.47 3.63.527 5.43.166.27-.047.52-.107.78-.178a9.8 9.8 0 001.62-.57c.24-.088.46-.191.68-.309.27-.13.54-.276.8-.439.29-.168.58-.354.85-.558.05-.028.1-.064.14-.107l.25-.178c.2-.154.41-.321.6-.475.17-.166.35-.321.53-.487.19-.178.37-.356.55-.534l.35-.392c.51-.569.98-1.172 1.4-1.805.64-.95 1.2-1.951 1.67-2.992a26.112 26.112 0 001.91-6.413h0zm22.03-14.843l-2.27-9.452a2.79 2.79 0 00-1.84-2.197l-5.54-2.244a63.82 63.82 0 00-7.96-14.13l-.15-7.814c.11-1.1-.28-2.188-1.07-2.969l-6.13-5.474a1.616 1.616 0 00-1.48-.44c-.29.08-.55.256-.73.5l-4.42 3.752a27.938 27.938 0 00-11.87-3.539l-4.05-6.293c-.51-1.021-1.37-1.58-2.14-1.366l-6.41 1.71a2.165 2.165 0 00-1.27 2.292l-.72 7.564a30.11 30.11 0 00-8.83 9.096l-5.582-1.069a1.265 1.265 0 00-.879-.071 1.633 1.633 0 00-1.069 1.104l-2.921 7.909a3.758 3.758 0 00.392 3.158l3.42 6.935a65.165 65.165 0 00-.606 16.422l-3.859 4.786a2.863 2.863 0 00-.618 2.838l2.268 9.452a2.796 2.796 0 001.841 2.197l5.543 2.244a62.453 62.453 0 007.97 14.131l.14 7.813a3.647 3.647 0 001.07 2.969l6.14 5.474c.38.388.93.555 1.46.439.29-.082.55-.257.74-.498l4.41-3.753a28.167 28.167 0 0011.88 3.539l4.05 6.305c.51 1.022 1.36 1.568 2.15 1.354l6.4-1.71a2.149 2.149 0 001.27-2.28l.71-7.564a30.255 30.255 0 008.84-9.108l5.58 1.081c.28.113.58.134.88.059.51-.173.91-.584 1.08-1.104l2.92-7.908a3.74 3.74 0 00-.42-3.171l-3.39-6.923a66.397 66.397 0 00.6-16.422l3.85-4.786c.7-.767.93-1.849.62-2.838h0zm-44.68-19.225c.23-.05.45-.09.68-.118.41-.084.82-.131 1.24-.143.73-.038 1.46-.01 2.19.083.53.075 1.05.178 1.57.309.1.022.21.05.31.083.2.049.41.108.6.178.1.026.2.058.3.095.26.095.54.19.8.297.53.218 1.05.468 1.55.748a24.107 24.107 0 018.86 8.93 32.844 32.844 0 012.02 3.99c.14.297.26.594.38.902.13.332.26.665.38 1.009.15.404.3.82.41 1.235.02.043.04.086.05.131.03.071.05.142.07.202.02.03.02.062.03.095.22.724.44 1.472.61 2.232.34 1.397.6 2.813.76 4.24.04.296.06.581.09.866.03.25.06.499.07.749l.03.498c.02.226.03.439.04.653.01.44.02.879.02 1.318v.594c0 .558-.02 1.116-.04 1.674a31.616 31.616 0 01-.37 3.219c-.36 2.21-1 4.365-1.91 6.412a20.336 20.336 0 01-1.67 2.992c-.42.633-.89 1.236-1.4 1.805-.12.131-.23.261-.35.392-.18.178-.36.356-.55.534-.18.166-.36.321-.53.487-.19.155-.4.321-.6.475-.08.059-.16.119-.25.178a.579.579 0 01-.14.107c-.27.204-.56.39-.85.558-.26.163-.53.309-.8.439-.22.118-.44.221-.68.309a9.8 9.8 0 01-1.62.57c-.26.071-.51.131-.78.178-1.8.361-3.66.304-5.43-.166-.42-.099-.83-.222-1.23-.368-.57-.201-1.13-.435-1.68-.701-4-2.118-7.31-5.342-9.53-9.286-.27-.474-.55-.95-.8-1.448a35.099 35.099 0 01-3.14-8.348 36.095 36.095 0 01-1.02-8.906c0-.558.02-1.116.06-1.686.34-5.57 2.1-10.521 4.94-13.94l7.31-4.656z" stroke="#313D3F" stroke-width="1.118" stroke-linejoin="round"/><path clip-rule="evenodd" d="M997.215 107.685l-3.859 4.786a1.756 1.756 0 00-.404.51c-.012.012-.012.012-.012.024a2.796 2.796 0 00-.225.606l-.036.226a3.454 3.454 0 00-.047.498c0 .095.011.19.011.273.009.236.04.471.095.701l-15.9 3.455a3.441 3.441 0 01-.083-.451 1.881 1.881 0 01-.012-.237c0-.095-.011-.19-.011-.285.011-.166.023-.333.047-.499l.036-.226c.053-.209.129-.412.225-.605 0-.012.012-.012.012-.024a1.72 1.72 0 01.333-.439l.071-.072 3.859-4.785 15.9-3.456z" stroke="#313D3F" stroke-width="1.118" stroke-linejoin="round"/><path d="M1060.86 202.131c-2.54 6.133-10.66 15.209-14.59 20.413-3.59 5.507-6.36 11.035-8.23 14.456-6.98 12.808-13.06 26.246-15.88 40.637-.2 1.004-.39 2.009-.57 3.015 4.73 23.883 3.39 53.119 3.08 78.752l-15.82.649c-2.15-24.285-6.42-66.891-8.57-91.137 5.56-27.035 24.18-79.328 34.89-105.208l43.46-6.2.59 6.234s.3 20.187-.3 21.671c.27 11.159-.73 22.311-2.98 33.244-3.72 17.791-10.62 36.379-6.37 69.306 6.11 8.763 15.67 32.661 15.67 32.661l8.76 24.43-19.12.531s-9.03-25.492-17.26-38.238c-6.11-10.621-10.36-19.119-10.36-19.119l-5.04-50.452 7.96-14.605" fill="#fff"/><path opacity=".1" d="M974.888 23.773V284.67a4.215 4.215 0 01-4.217 4.206H600.839v14.626a5.404 5.404 0 01-5.396 5.396h-85.748a5.405 5.405 0 01-5.396-5.396V241.26a5.404 5.404 0 015.396-5.396h36.453V23.773c.002-6.019 4.88-10.897 10.898-10.898H963.99c6.017.005 10.893 4.881 10.898 10.898z" fill="#000"/><path d="M282.44 157.531l-.387.444c2.2-3.026 6.753-3.698 10.129-2.085 3.375 1.612 5.607 5.047 6.58 8.659 1.452 5.392-.509 11.476 1.493 16.665 1.33 3.45 4.439 5.83 6.824 8.655a24.414 24.414 0 013.98 24.156c-4.878 12.416-22.65 21.773-31.913 8.43-3.189-4.594-4.209-10.417-3.909-16.002.299-5.584 1.821-11.022 3.333-16.406" fill="#fff"/><path d="M282.44 157.531l-.387.444c2.2-3.026 6.753-3.698 10.129-2.085 3.375 1.612 5.607 5.047 6.58 8.659 1.452 5.392-.509 11.476 1.493 16.665 1.33 3.45 4.439 5.83 6.824 8.655a24.414 24.414 0 013.98 24.156c-4.878 12.416-22.65 21.773-31.913 8.43-3.189-4.594-4.209-10.417-3.909-16.002.299-5.584 1.821-11.022 3.333-16.406" stroke="#313D3F" stroke-width="1.118" stroke-linejoin="round"/><path d="M283.243 156.668c-6.32-1.617-13.063-2.539-19.316-.682-6.253 1.858-11.864 7.079-12.471 13.574-.263 2.82.402 5.632.755 8.442.352 2.81.349 5.832-1.098 8.266-3.327 5.599-11.992 5.096-16.555 9.743-2.677 2.726-3.259 6.688-2.572 10.316.679 3.586 3.678 5.178 6.852 6.53 3.014 1.283 6.459 3.209 6.693 6.476.114 1.597-.615 3.145-.637 4.746a6.818 6.818 0 002.554 5.121 13.101 13.101 0 005.3 2.506 24.87 24.87 0 0015.819-1.371c3.607-1.543 9.831-5.243 10.971-9.185.64-2.214.146-5.399.208-7.691l.315-11.679.349-12.946s11.437-9.886 11.243-14.344" fill="#fff"/><path d="M283.243 156.668c-6.32-1.617-13.063-2.539-19.316-.682-6.253 1.858-11.864 7.079-12.471 13.574-.263 2.82.402 5.632.755 8.442.352 2.81.349 5.832-1.098 8.266-3.327 5.599-11.992 5.096-16.555 9.743-2.677 2.726-3.259 6.688-2.572 10.316.679 3.586 3.678 5.178 6.852 6.53 3.014 1.283 6.459 3.209 6.693 6.476.114 1.597-.615 3.145-.637 4.746a6.818 6.818 0 002.554 5.121 13.101 13.101 0 005.3 2.506 24.87 24.87 0 0015.819-1.371c3.607-1.543 9.831-5.243 10.971-9.185.64-2.214.146-5.399.208-7.691l.315-11.679.349-12.946s11.437-9.886 11.243-14.344" stroke="#313D3F" stroke-width="1.118" stroke-linejoin="round"/><path d="M291.69 222.633c.374 2.72.736 5.572-.222 8.145-1.486 3.991-6.021 6.319-10.272 6.059-4.25-.259-8.132-2.696-11.017-5.828a50.172 50.172 0 01-6.923-10.694c9.091-1.68 11.9-14.216 9.981-22.46 2.59 3.438 5.4 6.563 9.486 7.918 2.024.671 2.998-1.166 3.725.839.873 2.409.148 7.422.85 10.4.611.818 2.018.864 2.784 1.542a6.274 6.274 0 011.608 4.079z" fill="#fff"/><path d="M287.295 217.726c4.644 1.446 12.415 2.002 16.322 4.806 2.667 1.914 4.3 5.471 6.301 8.02" stroke="#313D3F" stroke-width="1.118" stroke-linejoin="round"/><path d="M269.774 378.793c5.06 12.451 10.173 22.84 19.367 35.208 2.746 3.694 5.695 7.409 6.939 11.841a34.24 34.24 0 01.906 8.583l1.029 49.197a567.253 567.253 0 0141.041-7.156 269.9 269.9 0 01-5.499-50.105 72.13 72.13 0 00-.948-13.499c-1.042-5.038-3.284-9.733-5.4-14.422-13.562-30.057-25.12-62.171-29.332-94.876-10.084 8.001-33.243.088-45.717 3.266-6.828 10.39-14.843 27.014-20.186 46.014l-8.313 75.997-1.781 13.655s-9.796 14.844-13.952 25.531a83.704 83.704 0 00-5.047 17.515l46.311 2.968s7.928-39.159 10.39-52.248c2.697-14.34 10.192-57.469 10.192-57.469z" fill="#fff"/><path d="M251.764 307.127c-29.092 45.717-27.518 94.561-28.696 133.413" stroke="#313D3F" stroke-width="1.118" stroke-linecap="round" stroke-linejoin="round"/><path d="M990.084 140.766c-3.895 3.009-2.302 13.1 4.432 12.926z" fill="#fff"/><path d="M990.084 140.766c-3.895 3.009-2.302 13.1 4.432 12.926M1011.73 359.793a15.952 15.952 0 01-13.61 9.847c-3.739.351-7.578-.572-11.232.294-4.078.967-7.323 3.633-10.018 6.843 17.744-.656 29.92-.062 47.12 0l-.98-17.28" stroke="#313D3F" stroke-width="1.118"/><path d="M963.013 11.898v260.897a4.21 4.21 0 01-4.217 4.206H538.49a4.21 4.21 0 01-4.217-4.206V11.897c.002-6.018 4.88-10.896 10.898-10.897h406.944c6.017.005 10.893 4.881 10.898 10.898h0z" fill="#fff" stroke="#313D3F" stroke-width="1.118"/><path d="M534.524 25.617h428.41" stroke="#313D3F" stroke-width="1.118"/><path d="M548.535 18.584a4.822 4.822 0 100-9.644 4.822 4.822 0 000 9.644z" fill="#313D3F"/><path d="M564.66 18.584a4.822 4.822 0 100-9.644 4.822 4.822 0 000 9.644zM580.785 18.584a4.821 4.821 0 100-9.643 4.821 4.821 0 00-4.821 4.821 4.821 4.821 0 004.821 4.822z" fill="#fff" stroke="#000" stroke-width=".838"/><path d="M945.272 86.245H816.708a2.584 2.584 0 00-2.584 2.584v17.602a2.585 2.585 0 002.584 2.585h128.564a2.585 2.585 0 002.584-2.585V88.829a2.584 2.584 0 00-2.584-2.584z" stroke="#000" stroke-width="1.118"/><path d="M802.298 95.011h-2.039a.81.81 0 01-.744-.541c-.064-.18-.149-.372-.233-.563a.813.813 0 01.148-.903l1.445-1.434a.957.957 0 000-1.349l-2.348-2.347a.955.955 0 00-1.349 0l-1.454 1.455a.799.799 0 01-.872.16c-.202-.086-.425-.181-.615-.256a.77.77 0 01-.5-.733v-2.05a.95.95 0 00-.956-.956h-3.324a.95.95 0 00-.946.957v2.028a.826.826 0 01-.531.754c-.202.07-.401.152-.594.245a.79.79 0 01-.903-.149l-1.445-1.434a.955.955 0 00-1.349 0l-2.347 2.358a.956.956 0 00.01 1.349l1.456 1.444c.227.23.294.573.17.871-.096.202-.181.425-.256.617a.795.795 0 01-.732.51h-2.061a.951.951 0 00-.945.955l.011 3.314a.95.95 0 00.955.956h2.029a.797.797 0 01.754.531c.069.188.147.373.234.553a.828.828 0 01-.149.913l-1.434 1.445a.957.957 0 000 1.349l2.348 2.336a.955.955 0 001.349 0l1.444-1.455a.786.786 0 01.871-.17c.213.096.436.181.627.255a.787.787 0 01.499.733v2.05a.959.959 0 00.956.956h3.325a.948.948 0 00.945-.956v-2.04a.802.802 0 01.531-.743c.191-.074.382-.159.563-.234a.773.773 0 01.903.149l1.444 1.434a.955.955 0 001.349 0l2.347-2.347a.955.955 0 000-1.349l-1.455-1.456a.783.783 0 01-.17-.871c.213-.488.436-1.083.447-1.115h2.602a.956.956 0 00.945-.956v-3.324a.94.94 0 00-.956-.946zm-6.553 3.463a4.703 4.703 0 11-9.252-1.688 4.703 4.703 0 019.252 1.688z" fill="#313D3F"/><path d="M945.272 46.509H816.894a2.584 2.584 0 00-2.584 2.584v17.602a2.584 2.584 0 002.584 2.584h128.378a2.584 2.584 0 002.584-2.584V49.093a2.584 2.584 0 00-2.584-2.584z" stroke="#000" stroke-width="1.118"/><path d="M802.326 46.509h-22.414a2.584 2.584 0 00-2.584 2.584v17.602a2.584 2.584 0 002.584 2.584h22.414a2.584 2.584 0 002.584-2.584V49.093a2.584 2.584 0 00-2.584-2.584z" stroke="#313D3F" stroke-width="1.118"/><path d="M922.698 54.437h-83.23a3.456 3.456 0 000 6.914h83.23a3.456 3.456 0 000-6.914zM922.698 94.174h-83.23a3.456 3.456 0 000 6.913h83.23a3.456 3.456 0 000-6.913z" fill="#E3E8E8"/><path d="M937.28 187.946h-24.263a8.2 8.2 0 100 16.402h24.263a8.201 8.201 0 000-16.402z" stroke="#313D3F" stroke-width="1.118"/><path d="M913.251 187.362h-.242a8.785 8.785 0 000 17.57h.242a8.785 8.785 0 008.785-8.785 8.785 8.785 0 00-8.785-8.785z" fill="#313D3F"/><path d="M937.28 246.096h-24.263a8.202 8.202 0 000 16.403h24.263a8.201 8.201 0 000-16.403z" stroke="#B5B5B5" stroke-width="1.118"/><path d="M913.243 246.096h-.226a8.202 8.202 0 000 16.403h.226a8.202 8.202 0 100-16.403z" fill="#B5B5B5"/><path d="M913.017 233.1h24.263a8.2 8.2 0 008.201-8.201v0a8.201 8.201 0 00-8.201-8.201h-24.263a8.201 8.201 0 00-8.201 8.201v0a8.2 8.2 0 008.201 8.201z" stroke="#313D3F" stroke-width="1.118"/><path d="M937.281 216.587h-.229a8.312 8.312 0 000 16.624h.229a8.311 8.311 0 008.312-8.312 8.311 8.311 0 00-8.312-8.312z" fill="#313D3F"/><path d="M881.156 140.694H779.217a3.637 3.637 0 000 7.273h101.939a3.637 3.637 0 100-7.273zM803.622 154.909h-24.405a3.636 3.636 0 000 7.273h24.405a3.636 3.636 0 000-7.273zM830.113 154.909h-11.482a3.637 3.637 0 100 7.273h11.482a3.636 3.636 0 000-7.273zM855.635 154.909h-11.483a3.636 3.636 0 000 7.273h11.483a3.636 3.636 0 000-7.273zM842.4 187.946h-63.394a2.295 2.295 0 100 4.591H842.4a2.296 2.296 0 000-4.591zM820.702 196.838h-42.106a1.887 1.887 0 00-1.886 1.886v.82c0 1.041.845 1.886 1.886 1.886h42.106a1.886 1.886 0 001.886-1.886v-.82a1.886 1.886 0 00-1.886-1.886zM842.4 216.698h-63.394a2.296 2.296 0 100 4.591H842.4a2.296 2.296 0 000-4.591zM820.702 225.591h-42.106a1.886 1.886 0 00-1.886 1.885v.82c0 1.042.845 1.886 1.886 1.886h42.106a1.885 1.885 0 001.886-1.886v-.82a1.885 1.885 0 00-1.886-1.885zM842.4 246.096h-63.394a2.296 2.296 0 000 4.591H842.4a2.295 2.295 0 100-4.591zM820.702 254.989h-42.106a1.886 1.886 0 00-1.886 1.886v.819c0 1.042.845 1.886 1.886 1.886h42.106a1.885 1.885 0 001.886-1.886v-.819a1.885 1.885 0 00-1.886-1.886z" fill="#E3E8E8"/><path d="M534.703 25.588H759.74v251.046H538.917a4.214 4.214 0 01-4.214-4.213V25.588z" fill="#313D3F"/><g opacity=".1" fill="#fff"><path opacity=".1" d="M552.729 52.848a3.319 3.319 0 100-6.638 3.319 3.319 0 000 6.638zM552.729 71.36a3.319 3.319 0 100-6.638 3.319 3.319 0 000 6.637zM552.729 89.87a3.319 3.319 0 100-6.637 3.319 3.319 0 000 6.638zM552.729 108.382a3.319 3.319 0 100-6.638 3.319 3.319 0 000 6.638zM552.729 126.893a3.319 3.319 0 100-6.638 3.319 3.319 0 000 6.638zM552.729 145.404a3.319 3.319 0 100-6.638 3.319 3.319 0 000 6.638zM552.729 163.915a3.319 3.319 0 100-6.638 3.319 3.319 0 000 6.638zM552.729 182.426a3.318 3.318 0 10.002-6.636 3.318 3.318 0 00-.002 6.636zM552.729 200.938a3.319 3.319 0 100-6.638 3.319 3.319 0 000 6.638zM552.729 219.449a3.319 3.319 0 100-6.638 3.319 3.319 0 000 6.638zM552.729 237.96a3.319 3.319 0 100-6.638 3.319 3.319 0 000 6.638zM552.729 256.471a3.319 3.319 0 100-6.638 3.319 3.319 0 000 6.638z"/></g><path d="M748.016 412.978l-10.782-5.451a75.114 75.114 0 00-9.844-23.784l3.752-11.495a4.128 4.128 0 00-.76-4.761l-10.414-10.414a4.149 4.149 0 00-4.785-.772l-11.471 3.764a74.93 74.93 0 00-23.785-9.844l-5.474-10.782a4.116 4.116 0 00-3.906-2.838h-14.725a4.147 4.147 0 00-3.93 2.838l-5.451 10.782a74.934 74.934 0 00-23.784 9.844l-11.495-3.753a4.094 4.094 0 00-4.762.761l-10.414 10.414a4.15 4.15 0 00-.783 4.773l3.776 11.483a75.091 75.091 0 00-9.844 23.784l-10.794 5.474a4.096 4.096 0 00-2.826 3.907v14.724a4.147 4.147 0 002.826 3.931l10.794 5.451a75.091 75.091 0 009.844 23.784l-3.753 11.495a4.094 4.094 0 00.76 4.761l10.414 10.414a4.152 4.152 0 004.774.784l11.483-3.776a74.957 74.957 0 0023.784 9.844l5.474 10.794a4.096 4.096 0 003.907 2.826h14.725a4.146 4.146 0 003.93-2.826l5.451-10.794a74.957 74.957 0 0023.784-9.844l11.495 3.752a4.128 4.128 0 004.761-.76l10.414-10.414a4.149 4.149 0 00.772-4.785l-3.764-11.471a75.12 75.12 0 009.844-23.785l10.782-5.474a4.117 4.117 0 002.838-3.907v-14.724a4.147 4.147 0 00-2.838-3.93z" fill="#fff"/><path clip-rule="evenodd" d="M748.016 412.978l-10.782-5.451a75.114 75.114 0 00-9.844-23.784l3.752-11.495a4.128 4.128 0 00-.76-4.761l-10.414-10.414a4.149 4.149 0 00-4.785-.772l-11.471 3.764a74.93 74.93 0 00-23.785-9.844l-5.474-10.782a4.116 4.116 0 00-3.906-2.838h-14.725a4.147 4.147 0 00-3.93 2.838l-5.451 10.782a74.934 74.934 0 00-23.784 9.844l-11.495-3.753a4.094 4.094 0 00-4.762.761l-10.414 10.414a4.15 4.15 0 00-.783 4.773l3.776 11.483a75.091 75.091 0 00-9.844 23.784l-10.794 5.474a4.096 4.096 0 00-2.826 3.907v14.724a4.147 4.147 0 002.826 3.931l10.794 5.451a75.091 75.091 0 009.844 23.784l-3.753 11.495a4.094 4.094 0 00.76 4.761l10.414 10.414a4.152 4.152 0 004.774.784l11.483-3.776a74.957 74.957 0 0023.784 9.844l5.474 10.794a4.096 4.096 0 003.907 2.826h14.725a4.146 4.146 0 003.93-2.826l5.451-10.794a74.957 74.957 0 0023.784-9.844l11.495 3.752a4.128 4.128 0 004.761-.76l10.414-10.414a4.149 4.149 0 00.772-4.785l-3.764-11.471a75.12 75.12 0 009.844-23.785l10.782-5.474a4.117 4.117 0 002.838-3.907v-14.724a4.147 4.147 0 00-2.838-3.93zm0 0l-10.782-5.451a75.114 75.114 0 00-9.844-23.784l3.752-11.495a4.128 4.128 0 00-.76-4.761l-10.414-10.414a4.149 4.149 0 00-4.785-.772l-11.471 3.764a74.93 74.93 0 00-23.785-9.844l-5.474-10.782a4.116 4.116 0 00-3.906-2.838h-14.725a4.147 4.147 0 00-3.93 2.838l-5.451 10.782a74.934 74.934 0 00-23.784 9.844l-11.495-3.753a4.094 4.094 0 00-4.762.761l-10.414 10.414a4.15 4.15 0 00-.783 4.773l3.776 11.483a75.091 75.091 0 00-9.844 23.784l-10.794 5.474a4.096 4.096 0 00-2.826 3.907v14.724a4.147 4.147 0 002.826 3.931l10.794 5.451a75.091 75.091 0 009.844 23.784l-3.753 11.495a4.094 4.094 0 00.76 4.761l10.414 10.414a4.152 4.152 0 004.774.784l11.483-3.776a74.957 74.957 0 0023.784 9.844l5.474 10.794a4.096 4.096 0 003.907 2.826h14.725a4.146 4.146 0 003.93-2.826l5.451-10.794a74.957 74.957 0 0023.784-9.844l11.495 3.752a4.128 4.128 0 004.761-.76l10.414-10.414a4.149 4.149 0 00.772-4.785l-3.764-11.471a75.12 75.12 0 009.844-23.785l10.782-5.474a4.117 4.117 0 002.838-3.907v-14.724a4.147 4.147 0 00-2.838-3.93zm-48.971 24.734c-.296.82-.641 1.627-.997 2.423a38.438 38.438 0 01-18.999 18.999c-.796.368-1.603.7-2.435 1.009a38.438 38.438 0 01-26.86 0 34.091 34.091 0 01-2.434-1.009 38.434 38.434 0 01-18.999-18.999 35.95 35.95 0 01-.998-2.423 38.305 38.305 0 010-26.872c.297-.819.63-1.638.998-2.434a38.43 38.43 0 0118.999-18.999 36.14 36.14 0 012.422-.998 38.327 38.327 0 0126.884 0c.82.297 1.627.642 2.423.998a38.434 38.434 0 0118.999 18.999c.368.796.701 1.615.997 2.434a38.294 38.294 0 010 26.872z" stroke="#313D3F" stroke-width="1.342"/><path d="M1111.68 414.001v-36.019H677.819v36.019" fill="#fff"/><path d="M1111.68 414.001v-36.019H677.819v36.019" stroke="#313D3F" stroke-width="1.118"/><path d="M1111.68 449.624v-36.019H647.737v36.019" fill="#fff"/><path d="M1111.68 449.624v-36.019H647.737v36.019" stroke="#313D3F" stroke-width="1.118"/><path d="M1111.68 485.248v-36.019H617.655v36.019" fill="#fff"/><path d="M1111.68 485.248v-36.019H617.655v36.019" stroke="#313D3F" stroke-width="1.118"/><path d="M1111.68 520.871v-36.019H587.573v36.019" fill="#fff"/><path d="M1111.68 520.871v-36.019H587.573v36.019" stroke="#313D3F" stroke-width="1.118"/><path d="M355.324 184.095v28.761c0 5.927 4.805 10.731 10.732 10.731h0c5.926 0 10.731-4.804 10.731-10.731v-28.761c0-5.927-4.805-10.731-10.731-10.731h0c-5.927 0-10.732 4.804-10.732 10.731z" stroke="#313D3F"/><path d="M366.056 201.83c-5.927 0-10.731 4.804-10.731 10.731v.295c0 5.927 4.804 10.731 10.731 10.731 5.926 0 10.731-4.804 10.731-10.731v-.295c0-5.927-4.805-10.731-10.731-10.731z" fill="#313D3F"/><path d="M1101.26 76.328c.93 2.4 2.87 15.99 3.36 18.41.28 1.366 3.04 32.708.18 35.76-3.37 6.904-24.03 21.609-26.03 20.889-1.18-.426-1.46-6.758.36-11.861 1.09-3.071 4.02-5.419 4.95-6.55 1.21-1.469 7.73-8.942 6.91-10.621-2.44-4.968.8-12.584.18-12.038-1.42 4.603-.41 3.673-3.78 11.248-1.88 4.211-4.39 8.135-6.16 12.384a42.713 42.713 0 00-1.84 25.793c-13.22 4.813-29.95 6.905-43.66 3.777a149.574 149.574 0 014.37-32.758 147.16 147.16 0 01-11.15 11.135c-10.29 4.354-24.14 11.479-35.226 9.945-2.226-2.82.048-5.533-.014-7.277 10.77-5.426 23.61-14.246 32.97-20.925a143.728 143.728 0 0012.32-22.413c3.54-8.236 8.48-19.053 16.03-23.898a18.933 18.933 0 0110.64-2.947c4.61.198 9.27.868 13.1 3.363 4.65 3.024 9.21-6.55 10.98-8.851 3.21-.451 9.91-.708 11.51 7.435z" fill="#fff"/><path d="M1039.59 130.764a148.957 148.957 0 00-4.37 32.758c13.71 3.128 30.44 1.036 43.65-3.778a42.712 42.712 0 011.85-25.792c2.49-5.966 8.3-12.836 13.34-34.804" stroke="#313D3F" stroke-width="1.118"/><path d="M1065.22 17.185c.76 4.957 1.46 9.688.06 14.614-1.41 4.968-3.24 9.816-4.57 14.812-1.1 4.114-1.89 9.346 1.22 12.774 3.24 3.575 8.01 2.639 12.19 1.722M1088.74 44.726c-2.86 5.15-3.38 16.656-.45 25.766" stroke="#313D3F" stroke-width="1.118" stroke-linejoin="round"/><path d="M1087.33 48.277c-.03.053-.06.08-.08.067-.04-.013-.02-.026.08-.067z" fill="#000"/><path d="M1106.84 22.44a55.098 55.098 0 01-5.71 10.868c-2.51 3.971-4.03 6.191-6.19 9.799a17.454 17.454 0 00-1.9 4.92c-1.26.588-5.14.695-5.77.91.56-.756 2.9-8.41 2.9-8.41l-1.24.338a3.603 3.603 0 01-3.67-.624c-1.56-1.389-1.58-3.79-1.31-5.864a36.32 36.32 0 013.08-10.6 48.45 48.45 0 01-23.53 6.174c-4.27.132-8.53-.675-12.46-2.364-4.23-1.97-6.97-6.93-3.52-10.988 2.5-2.936 6.47-4.281 10.32-4.424 5.36-.197 10.4 2.417 15.7.98 3.6-.98 6.43-3.715 9.72-5.489a19.837 19.837 0 0115.61-1.302 6.975 6.975 0 013.44 2.163c.99 1.177.93 2.92-.15 4.02 2.15.23 3.99 1.638 4.77 3.652a9.052 9.052 0 01-.09 6.241z" fill="#313D3F"/><path d="M1068.17 38.183a16.606 16.606 0 01-3.61 8.369l2.31-.012" stroke="#313D3F" stroke-width="1.118" stroke-linejoin="round"/><path d="M1084.25 44.197c.55-1.876 1.25-4.022 2.75-5.379 1.09-.992 3.47-1.788 4.52-.308.23.35.38.743.46 1.156.92 4.046-1.37 8.788-4.73 11.085-.84.576-3.34 1.373-3.26-.46" fill="#fff"/><path d="M1084.25 44.197c.55-1.876 1.25-4.022 2.75-5.379 1.09-.992 3.47-1.788 4.52-.308.23.35.38.743.46 1.156.92 4.046-1.37 8.788-4.73 11.085-.84.576-3.34 1.373-3.26-.46" stroke="#313D3F" stroke-width="1.118"/><path d="M1084.25 44.197c.55-1.876 1.25-4.022 2.75-5.379 1.09-.992 3.47-1.788 4.52-.308.23.35.38.743.46 1.156.92 4.046-1.37 8.788-4.73 11.085-.63.432-2.2.988-2.9.466M1073.14 61.846a22.05 22.05 0 01-3.48 12.455" stroke="#313D3F" stroke-width="1.118" stroke-linejoin="round"/><path d="M1082.01 56.574c-1.4 4.548-2.63 8.487-9.2 9.363.19-1.731.18-3.478-.01-5.208 0 0 3.48-.113 9.21-4.155z" fill="#313D3F"/><path d="M1040.93 232.439c1.02 19.222 4.53 47.827 6.29 55.625 12.66 22.236 23.01 41.938 32.01 67.489 0 0 8.97-4.278 15.13-8.03-11.74-32.118-13.79-41.856-25-59.143-1-7.578-1.39-15.222-1.18-22.862.32-34.392 17.57-63.062 10.03-105.516" stroke="#313D3F" stroke-width="1.118"/><path d="M1035.17 163.708c-10.71 25.88-29.33 78.173-34.89 105.208 2.15 24.246 6.42 66.852 8.57 91.137l15.82-.649c.31-25.633 1.65-54.869-3.08-78.752.18-1.006.37-2.011.57-3.015 2.82-14.391 8.9-27.829 15.88-40.637 1.87-3.421 4.64-8.949 8.23-14.456 3.93-5.204 12.05-14.28 14.59-20.413" stroke="#313D3F" stroke-width="1.118"/><path d="M1089.17 41.302a6.343 6.343 0 01-2.59 6.506" stroke="#313D3F" stroke-width="1.118" stroke-linejoin="round"/><path d="M1063.74 100.894c-10.28 14.066-21.24 27.954-33.97 39.857l-1.08.927c-10.43 4.414-26.02 11.951-34.669 10.163-2.895-1.707-.255-7.124-.255-7.124 10.934-5.572 32.554-21.363 32.554-21.363 6.49-7.239 10.04-18.12 14.76-26.56 2.92-5.222 5.41-10.648 9.33-15.228a23.756 23.756 0 017.05-5.5 18.564 18.564 0 0110.55-1.922c3.04.378 5.74 2.109 8.81 2.273 2.57.282 5.17-.118 7.53-1.158 2.29-1.173 4.08-3.626 3.79-6.18M1082.59 353.955c.69 3.647 1.39 5.686-.63 8.806-2.39 3.711-7.36 4.467-11.6 5.688a35.568 35.568 0 00-8.36 3.622c-1.7 1.008-3.47 2.404-3.3 4.535 2.5.024 11.27-.03 20.67-.327 9.28-2.894 22.83-8.527 22.61-8.965-2.55-5.046-6.9-12.819-10.14-18.257" stroke="#313D3F" stroke-width="1.118"/><path d="M1083.13 356.033a5.583 5.583 0 01-.57-1.954l9.48-5.022s.69 3.513-8.91 6.976zM1023.43 359.77s-5.72 3.703-12.15 2.421c.04-.635.17-1.262.38-1.864l11.77-.557z" fill="#313D3F"/><path d="M1058.67 183.295a20.468 20.468 0 01-14.82 2.597" stroke="#313D3F" stroke-width="1.118"/><path d="M1038.12 137.518a41.708 41.708 0 00-1.61 9.209c2.76-5.412 4.94-7.813 8.87-12.451 1.82-2.157 4.78-5.419 6.43-7.718a59.62 59.62 0 008.81-15.437c.6-1.561 3.07-9.402 2.91-10.504-2.21 2.271-3.94 5.394-5.84 7.962-2.1 2.855-4.24 5.691-6.4 8.507a60.658 60.658 0 01-3.98 4.92c-2.97 3.117-7.57 9.054-7.57 9.054-.45 2.201-1.05 4.329-1.62 6.458z" fill="#313D3F"/><path d="M325.04 511.144c-1.437-3.096-5.948-15.41-9.2-30.715M329.954 478.089c.328 9.762.687 19.428 1.469 31.917M225.838 486.432c.916 10.27 2.332 21.809 3.315 30.402M239.228 487.294c-1.49 7.438-3.364 16.021-3.247 25.136" stroke="#313D3F" stroke-width="1.118" stroke-linecap="round" stroke-linejoin="round"/><path d="M229.054 515.3c1.059-1.159 3.018-1.83 5.591-2.622a41.25 41.25 0 017.174-1.583c4.119-.512 8.776-.563 12.418 1.427 3.22 1.76 5.272 5.136 7.18 8.27-10.329.24-22.101.314-33.797 0M324.397 510.798c-1.469 3.729-2.288 6.939-1.695 10.093 14.023.267 28.017.594 42.86 0-3.088-4.774-11.844-9.163-17.416-10.291a57.961 57.961 0 00-17.799-.641l-5.95.839z" fill="#313D3F"/><path d="M298.025 304.158c4.212 32.705 15.622 64.225 29.184 94.282 2.116 4.689 4.358 9.384 5.4 14.422a72.13 72.13 0 01.948 13.499 269.826 269.826 0 005.5 50.105 567.38 567.38 0 00-41.042 7.156l-1.029-49.197a34.298 34.298 0 00-.906-8.584c-1.244-4.431-4.193-8.146-6.939-11.841-9.194-12.367-14.307-22.756-19.367-35.207" stroke="#313D3F" stroke-width="1.118" stroke-linecap="round" stroke-linejoin="round"/><path d="M273.045 196.708a22.148 22.148 0 01.163 12.648 16.42 16.42 0 01-5.06 8.318c-.363.236-.623.412-.623.412-2.536 1.714-5.7 2.526-8.746 3.35M286.42 205.043c.497 7.238.746 11.959 1.244 19.197" stroke="#313D3F" stroke-width="1.118" stroke-linejoin="round"/><path d="M295.744 192.513a21.461 21.461 0 01-1.843 8.484 9.474 9.474 0 01-6.534 5.319c-7.72 1.318-14.617-8.167-16.472-14.419a26.803 26.803 0 01-.765-10.097c.39-2.616 2.477-5.448 3.621-7.843a17.14 17.14 0 018.24-8.396 12.948 12.948 0 018.278-.774c1.117.278 2.576.641 3.093 1.676.652 1.31.587 3.665.817 5.126a100.512 100.512 0 011.565 20.924z" fill="#fff"/><path d="M294.022 166.225c1.455 8.698 2.915 17.481 2.444 26.288a21.443 21.443 0 01-1.842 8.484 9.474 9.474 0 01-6.534 5.319c-2.899.495-5.835-.814-8.166-2.608a44.953 44.953 0 01-6.49-5.972l-.988-2.405M270.606 187.068a6.077 6.077 0 00-1.851-1.128c-1.231-.455-2.478-.317-2.699 1.429-.371 2.929 2.263 8.455 5.972 7.791" stroke="#313D3F" stroke-width="1.118" stroke-linejoin="round"/><path d="M268.218 188.764a3.361 3.361 0 002.203 3.232" stroke="#313D3F" stroke-width=".838" stroke-linejoin="round"/><path d="M291.544 184.545c.625 2.973.79 2.974 1.414 5.947a.379.379 0 01-.422.555l-2.843.065" stroke="#313D3F" stroke-width=".838"/><path d="M288.229 167.871c-.799 4.854-3.488 8.889-7.029 12.303-3.542 3.414-6.645 5.482-11.525 6.103" stroke="#313D3F" stroke-width="1.118" stroke-linejoin="round"/><path d="M287.783 167.426l-.226-.444a15.948 15.948 0 007.976 8.245" stroke="#313D3F" stroke-width="1.118" stroke-linejoin="round"/><path d="M273.683 198.523s2.968 12.282 8.98 12.579c2.635 0 4.008-1.076 3.785-4.49 0 0-2.227.074-6.754-3.414-4.527-3.488-6.011-4.675-6.011-4.675z" fill="#313D3F"/><path d="M271.456 200.378a3.117 3.117 0 100-6.234 3.117 3.117 0 000 6.234z" fill="#313D3F"/><path d="M280.395 356.093c-5.124 6.745-8.615 15.068-11.384 23.073-2.583 7.466-4.048 15.263-5.504 23.028l-4.519 24.097" stroke="#313D3F" stroke-width="1.118" stroke-linecap="round" stroke-linejoin="round"/><path d="M261.858 411.25c-2.105 13.373-3.667 19.051-5.772 32.424l-.836 5.313-1.308 8.313c-1.709 10.854-3.042 20.059-4.75 30.913-14.691-1.859-30.918-2.271-45.717-2.748.941-17.062 11.145-32.026 20.989-45.994" stroke="#313D3F" stroke-width="1.118" stroke-linecap="round" stroke-linejoin="round"/><path d="M225.907 395.773l2.067 31.929a24.786 24.786 0 01-.295 7.624 8.378 8.378 0 01-4.52 5.844l.469-35.981" fill="#000"/><path d="M1059.43 204.89s-10.69 20.187-12.47 26.124c-1.78 5.937-2.03 44.48-2.03 44.48l-3.81-43.391a71.74 71.74 0 0112.17-18.307c1.98-3.166 6.14-8.906 6.14-8.906zM1101.98 367.314l-22.61 8.965-20.67.327.43-2.01 19.7-.593 21.86-8.905 1.29 2.216zM1022.92 374.102l-44.039.396-2.011 2.279c17.745-.656 29.92-.062 47.12 0l-.15-2.677-.92.002z" fill="#313D3F"/><path d="M245.233 448.244v-96.476h-84.332v86.693h64.79v9.783a9.804 9.804 0 006.942 9.347 9.504 9.504 0 002.818.412h.023a9.755 9.755 0 009.759-9.759z" fill="#fff" stroke="#313D3F" stroke-width="1.118" stroke-linecap="round" stroke-linejoin="round"/><path d="M245.233 351.769l-42.154-30.591-42.178 30.591" stroke="#313D3F" stroke-width="1.118"/><path d="M708.933 370.973h115.869v2.38a3.872 3.872 0 01-3.872 3.871H712.804a3.87 3.87 0 01-3.871-3.871v-2.38zM723.853 310.268h86.029a5.162 5.162 0 015.162 5.162v55.489h-96.353V315.43a5.162 5.162 0 015.162-5.162z" fill="#fff" stroke="#313D3F" stroke-width="1.118"/><path opacity=".3" d="M806.604 316.719h-79.619c-.656 0-1.188.532-1.188 1.187v45.136c0 .656.532 1.187 1.188 1.187h79.619c.656 0 1.187-.531 1.187-1.187v-45.136c0-.655-.531-1.187-1.187-1.187z" fill="#B5B5B5"/><path d="M762.903 321.945h-30.539a1.97 1.97 0 00-1.971 1.971v0a1.97 1.97 0 001.971 1.97h30.539a1.97 1.97 0 001.971-1.97v0a1.971 1.971 0 00-1.971-1.971z" fill="#313D3F" stroke="#313D3F" stroke-width=".838"/><path d="M784.361 321.945h-11.256a1.97 1.97 0 00-1.971 1.971v0a1.97 1.97 0 001.971 1.97h11.256a1.97 1.97 0 001.971-1.97v0a1.971 1.971 0 00-1.971-1.971zM807.789 336.811h-27.7a1.975 1.975 0 110-3.951h27.7" stroke="#313D3F" stroke-width=".838"/><path d="M759.17 336.806h10.613a1.97 1.97 0 100-3.941H759.17a1.97 1.97 0 100 3.941z" fill="#313D3F" stroke="#313D3F" stroke-width=".838"/><path d="M725.865 332.86h23.102a1.976 1.976 0 010 3.951h-23.102" stroke="#313D3F" stroke-width=".838"/><path d="M756.123 354.705H730.91a1.97 1.97 0 000 3.941h25.213a1.97 1.97 0 100-3.941z" fill="#313D3F" stroke="#313D3F" stroke-width=".838"/><path d="M782.908 354.705h-16.583a1.97 1.97 0 000 3.941h16.583a1.97 1.97 0 000-3.941zM736.493 347.726h17.304a1.97 1.97 0 100-3.941h-17.304a1.97 1.97 0 100 3.941zM725.865 343.79h1.88a1.97 1.97 0 110 3.94h-1.88M767.191 343.785h-3.347a1.97 1.97 0 00-1.971 1.97v0c0 1.089.883 1.971 1.971 1.971h3.347a1.97 1.97 0 001.971-1.971v0a1.97 1.97 0 00-1.971-1.97zM795.779 343.785h-21.235a1.97 1.97 0 00-1.97 1.97v0a1.97 1.97 0 001.97 1.971h21.235a1.971 1.971 0 001.971-1.971v0a1.97 1.97 0 00-1.971-1.97z" stroke="#313D3F" stroke-width=".838"/><path d="M330.342 244.322a52.958 52.958 0 01-4.857 5.522 48.117 48.117 0 01-7.597 6.974c-1.929 1.498-3.985 3.018-6.084 4.35a28.76 28.76 0 01-3.332 1.93c-1.061.486-2.226.702-3.28 1.209l-.154 19.7c-.07 8.838.281 21.123-9.595 25.043a44.521 44.521 0 01-15.72 2.62 113.5 113.5 0 01-20.806-1.99 19.238 19.238 0 01-10.861-5.689c-3.208-3.482-3.983-7.633-4.03-12.218-.083-8.134.345-16.327.926-24.438-.249-.095-.498-.201-.748-.297a.47.47 0 00-.083-.035c-11.494-3.99-20.186-13.573-31.123-18.904 8.312-2.387 15.116-8.23 21.766-13.763 1.663-1.377 3.23-2.755 4.809-4.061l.072-.071a44.096 44.096 0 015.201-4.192 31.817 31.817 0 0113.026-5.011 33.458 33.458 0 004.975-1.294 39.133 39.133 0 003.836 6.139c4.002 5.343 9.82 10.592 16.422 9.642a10.825 10.825 0 008.301-6.519c1.377-3.408.997-8.205-1.247-11.127.76.155 1.52.309 2.28.487l.415.083c3.943.796 8.407 1.698 11.103 3.634a19.63 19.63 0 014.56 5.45c.629.962 1.223 1.876 1.864 2.696a45.322 45.322 0 008.217 8.336 31.1 31.1 0 0011.412 4.856.564.564 0 01.415.381.581.581 0 01-.083.557z" fill="#313D3F"/><path d="M275.139 364.082a300.291 300.291 0 0021.094 41.407c2.997 4.903 6.218 9.955 6.793 15.672.382 3.809-.451 7.624-1.278 11.362l-4.203 18.978-.286-3.193s.247-27.361-5.096-29.736c-5.789-7.124-20.261-33.026-23.007-40.522.148-2.226 5.983-13.968 5.983-13.968z" fill="#141B1C"/><path d="M299.825 313.233a62.588 62.588 0 01-50.237-3.812" stroke="#141B1C" stroke-width="1.118" stroke-linecap="round" stroke-linejoin="round"/><path d="M251.401 323.043c.548 4.841-2.588 9.898-7.45 12.012z" fill="#141B1C"/><path d="M248.242 310.678a66.37 66.37 0 0053.481 7.389" stroke="#141B1C" stroke-width="1.118" stroke-linecap="round" stroke-linejoin="round"/><path d="M56.401 454.767c3.634-4.36-2.18-113.372-45.057-127.906C-31.534 312.326 56.4 454.767 56.4 454.767z" fill="#37BA99"/><path d="M18.358 348.446c9.443 16.285 32.605 61.655 42.04 128.85" stroke="#313D3F" stroke-width="1.118"/><path d="M42.864 453.541s-.075-74.563-23.55-57.898c-23.477 16.664 23.55 57.898 23.55 57.898z" fill="#EFC01A"/><path d="M32.692 423.063s7.085 13.763 11.31 38.426" stroke="#313D3F" stroke-width="1.118"/><path d="M60.217 456.584s6.539-124.704 44.37-94.812c37.832 29.891-44.37 94.812-44.37 94.812z" fill="#fff" stroke="#313D3F" stroke-width="1.118"/><path d="M97.099 379.913c-1.09 1.09-32.34 54.869-38.88 85.029" stroke="#313D3F" stroke-width="1.118"/><path d="M75.83 520.265H31.886l-9.987-58.594h63.92l-9.987 58.594z" fill="#fff" stroke="#313D3F" stroke-width="1.118"/><path d="M23.562 472.241h60.924" stroke="#313D3F" stroke-width="3.354"/><path d="M585.443 45.706h-6.876a2.857 2.857 0 100 5.714h6.876a2.857 2.857 0 100-5.714z" fill="#5DC8DD"/><path d="M645.853 45.706h-44.272a2.857 2.857 0 100 5.714h44.272a2.857 2.857 0 000-5.714z" fill="#37BA99"/><path d="M676.96 45.706h-16.318a2.857 2.857 0 100 5.714h16.318a2.857 2.857 0 000-5.714z" fill="#EFC01A"/><path d="M742.691 61.536h-71.92a2.857 2.857 0 100 5.714h71.92a2.857 2.857 0 100-5.714z" fill="#F16D6E"/><path d="M640.441 67.25h15.386a2.857 2.857 0 100-5.714h-15.386a2.857 2.857 0 100 5.714z" fill="#37BA99"/><path d="M578.567 67.25h47.084a2.857 2.857 0 100-5.714h-47.084a2.857 2.857 0 100 5.714z" fill="#EFC01A"/><path d="M585.443 93.197h-6.876a2.857 2.857 0 100 5.714h6.876a2.857 2.857 0 100-5.714z" fill="#37BA99"/><path d="M636.025 93.197h-36.551a2.857 2.857 0 000 5.714h36.551a2.857 2.857 0 000-5.715z" fill="#F16D6E"/><path d="M674.853 93.197h-24.039a2.857 2.857 0 100 5.714h24.039a2.857 2.857 0 100-5.714z" fill="#37BA99"/><path d="M716.005 109.027h-71.569a2.857 2.857 0 100 5.713h71.569a2.857 2.857 0 100-5.713z" fill="#EFC01A"/><path d="M627.8 114.74h4.852a2.857 2.857 0 100-5.713H627.8a2.857 2.857 0 100 5.713z" fill="#37BA99"/><path d="M578.567 114.74h36.55a2.857 2.857 0 100-5.713h-36.55a2.857 2.857 0 000 5.713z" fill="#5DC8DD"/><path d="M607.567 83.08h25.085a2.857 2.857 0 100-5.714h-25.085a2.857 2.857 0 000 5.714z" fill="#37BA99"/><path d="M578.567 83.08h16.318a2.858 2.858 0 000-5.714h-16.318a2.857 2.857 0 100 5.714z" fill="#F16D6E"/><path d="M652.069 77.366h-4.852a2.857 2.857 0 100 5.714h4.852a2.857 2.857 0 100-5.714z" fill="#EFC01A"/><path d="M693.512 77.366h-30.783a2.857 2.857 0 100 5.714h30.783a2.857 2.857 0 100-5.714z" fill="#5DC8DD"/><path d="M585.443 172.36h-6.876a2.857 2.857 0 100 5.714h6.876a2.857 2.857 0 100-5.714z" fill="#EFC01A"/><path d="M636.025 172.36h-36.551a2.857 2.857 0 000 5.714h36.551a2.857 2.857 0 000-5.714z" fill="#37BA99"/><path d="M672.746 172.36h-24.039a2.857 2.857 0 000 5.714h24.039a2.857 2.857 0 100-5.714z" fill="#5DC8DD"/><path d="M607.567 162.244h25.085a2.857 2.857 0 100-5.714h-25.085a2.857 2.857 0 000 5.714z" fill="#EFC01A"/><path d="M578.567 162.244h16.318a2.857 2.857 0 000-5.714h-16.318a2.857 2.857 0 100 5.714zM649.963 156.53h-4.853a2.857 2.857 0 000 5.714h4.853a2.857 2.857 0 000-5.714z" fill="#37BA99"/><path d="M691.405 156.53h-30.783a2.857 2.857 0 100 5.714h30.783a2.857 2.857 0 100-5.714zM585.443 140.687h-6.876a2.857 2.857 0 00-2.857 2.856v.001a2.857 2.857 0 002.857 2.856h6.876a2.857 2.857 0 002.857-2.856v-.001a2.857 2.857 0 00-2.857-2.856z" fill="#EFC01A"/><path d="M683.808 140.687h-84.334a2.856 2.856 0 00-2.856 2.856v.001a2.856 2.856 0 002.856 2.856h84.334a2.857 2.857 0 100-5.713z" fill="#F16D6E"/><path d="M720.529 140.687h-24.038a2.857 2.857 0 00-2.857 2.856v.001a2.857 2.857 0 002.857 2.856h24.038a2.857 2.857 0 002.857-2.856v-.001a2.857 2.857 0 00-2.857-2.856z" fill="#5DC8DD"/><path d="M695.901 124.857h-51.465a2.857 2.857 0 100 5.713h51.465a2.857 2.857 0 100-5.713z" fill="#37BA99"/><path d="M607.567 130.57h25.085a2.857 2.857 0 100-5.713h-25.085a2.857 2.857 0 000 5.713z" fill="#5DC8DD"/><path d="M578.567 130.57h16.318a2.857 2.857 0 000-5.713h-16.318a2.857 2.857 0 100 5.713z" fill="#37BA99"/><path opacity=".1" d="M600.839 241.26v35.741H538.49a4.21 4.21 0 01-4.216-4.206v-36.931h61.169a5.404 5.404 0 015.396 5.396z" fill="#000"/><path d="M583.755 229.494h-85.74a5.396 5.396 0 00-5.396 5.396v62.237a5.396 5.396 0 005.396 5.396h85.74a5.396 5.396 0 005.396-5.396V234.89a5.396 5.396 0 00-5.396-5.396z" fill="#EFC01A"/><path d="M518.139 268.099l11.396 4.606v3.568l-14.891-6.9v-2.657l14.891-6.881v3.568l-11.396 4.696zm17.385 13.999h-2.895l11.068-28.78h2.876l-11.049 28.78zm26.613-14.108l-12.033-4.715v-3.458l15.546 6.881v2.657l-15.546 6.899v-3.495l12.033-4.769z" fill="#313D3F"/><path d="M183.596 358.721h-6.691a2.78 2.78 0 00-2.78 2.78v0a2.78 2.78 0 002.78 2.78h6.691a2.78 2.78 0 002.78-2.78v0a2.78 2.78 0 00-2.78-2.78z" fill="#fff" stroke="#313D3F" stroke-width="1.118" stroke-linecap="round" stroke-linejoin="round"/><path d="M242.38 358.721H199.3a2.78 2.78 0 100 5.56h43.08a2.78 2.78 0 100-5.56z" fill="#EFC01A"/><path d="M244.897 374.123v5.566h-7.785a2.783 2.783 0 010-5.566h7.785zM176.905 379.686h45.818a2.78 2.78 0 000-5.56h-45.818a2.78 2.78 0 100 5.56zM183.596 404.934h-6.691a2.78 2.78 0 000 5.56h6.691a2.78 2.78 0 000-5.56zM232.817 404.934H197.25a2.78 2.78 0 100 5.56h35.567a2.78 2.78 0 000-5.56z" fill="#fff" stroke="#313D3F" stroke-width="1.118" stroke-linecap="round" stroke-linejoin="round"/><path d="M244.897 406.19v3.059a2.737 2.737 0 010-3.059z" fill="#EFC01A"/><path d="M244.897 420.348v5.545h-3.898a2.773 2.773 0 010-5.545h3.898zM224.814 425.898h4.721a2.78 2.78 0 002.78-2.78v0a2.78 2.78 0 00-2.78-2.78h-4.721a2.78 2.78 0 00-2.78 2.78v0a2.78 2.78 0 002.78 2.78z" fill="#fff" stroke="#313D3F" stroke-width="1.118" stroke-linecap="round" stroke-linejoin="round"/><path d="M176.905 425.898h35.567a2.78 2.78 0 100-5.56h-35.567a2.78 2.78 0 000 5.56zM205.125 395.09h24.41a2.78 2.78 0 100-5.56h-24.41a2.78 2.78 0 100 5.56z" fill="#EFC01A"/><path d="M176.905 395.09h15.878a2.78 2.78 0 100-5.56h-15.878a2.78 2.78 0 100 5.56zM244.897 389.535v5.555h-1.189a2.777 2.777 0 010-5.555h1.189z" fill="#fff" stroke="#313D3F" stroke-width="1.118" stroke-linecap="round" stroke-linejoin="round"/><path d="M244.897 435.739v4.917c0 .223-.01.436-.021.648h-3.877a2.783 2.783 0 010-5.565h3.898z" fill="#EFC01A"/><path d="M205.125 441.303h24.41a2.78 2.78 0 100-5.56h-24.41a2.78 2.78 0 100 5.56zM176.905 441.303h15.878a2.78 2.78 0 100-5.56h-15.878a2.78 2.78 0 100 5.56z" fill="#fff" stroke="#313D3F" stroke-width="1.118" stroke-linecap="round" stroke-linejoin="round"/><path d="M160.901 438.472h64.79v9.772a9.768 9.768 0 006.942 9.347h.001c.378.133.763.246 1.152.339.345.054 1.469.073 1.469.073h-74.354" fill="#ECEFF1"/><path d="M160.901 438.472h64.79v9.772a9.768 9.768 0 006.942 9.347h.001c.378.133.763.246 1.152.339.345.054 1.469.073 1.469.073h-74.354" stroke="#313D3F" stroke-width="1.118"/><path d="M160.901 458.003h71.733v.006h-74.567a9.759 9.759 0 01-9.759-9.76v-.017c0-5.39 4.369-9.76 9.759-9.76h2.834" fill="#ECEFF1"/><path d="M160.901 458.003h71.733v.006h-74.567a9.759 9.759 0 01-9.759-9.76v-.017c0-5.39 4.369-9.76 9.759-9.76h2.834" stroke="#313D3F" stroke-width="1.118"/><path d="M235.474 458.003a9.755 9.755 0 009.759-9.759v-96.476h-84.332" stroke="#313D3F" stroke-width="1.118" stroke-linecap="round" stroke-linejoin="round"/><path d="M206.443 319.595c.297 4.552 1.443 8.305.099 11.182a3.139 3.139 0 01-.562.913 2.766 2.766 0 01-.787.508c-2.722 1.3-6.477.268-9.315-.753-.242-.088-.654.082-.796-.133-.121-.181-.597-.38-.598-.597a5.509 5.509 0 01.521-2.407 27.783 27.783 0 017.084-10.494s.406-18.079 4.566-29.497c2.301-8.675 3.098-10.71 3.098-10.71s17.525-20.447 17.791-20.447c.265 0 6.506 4.382 13.144 8.232-2.788 3.054-12.347 10.71-12.347 10.71l-6.639 5.311-9.913 25.137-4.603 9.383-.743 3.662zM341.991 275.35s-5.576 7.169-13.011 7.169c-5.975-.133-20.845-19.119-20.579-19.119.265 0 10.754-6.771 15.135-11.285 1.992 5.045 8.099 13.808 8.099 13.808l25.758-22.173 6.461-6.24 11.418-7.435.177 7.701-9.205 4.425-1.151 1.284s-26.343 34.903-23.102 31.865z" fill="#fff"/><path d="M206.295 317.665c5.251-10.691 11.751-25.091 15.158-36.503a193.78 193.78 0 0020.784-16.509" stroke="#313D3F" stroke-width="1.118"/><path d="M207.037 315.934a39.966 39.966 0 004.255 9.697c-.866.155-3.856-1.837-4.552-2.375M202.171 318.357c.017-1.784.208-3.531.376-5.321.375-4.01.672-7.997 1.305-11.98a121.763 121.763 0 012.441-11.653 126.5 126.5 0 011.702-5.942c.432-1.386.808-4.211 1.769-5.288 6.62-7.412 12.825-14.999 19.062-22.574" stroke="#313D3F" stroke-width="1.118"/><path d="M206.389 321.686c.886 3.364 1.771 5.576 2.368 8.431-4.184 4.782-14.661 1.941-14.804 1.726.275-1.758.697-3.49 1.262-5.178 1.629-4.133 3.684-5.746 6.926-8.785l.088-1.947" stroke="#313D3F" stroke-width="1.118"/><path clip-rule="evenodd" d="M368.329 234.561c2.67.488 5.233 1.44 7.574 2.815a37.725 37.725 0 01-9.363 4.673c-2.117.713-6.729 2.703-8.704.988-2.11-1.833-.464-4.859 1.19-6.267a11.616 11.616 0 019.303-2.209z" stroke="#313D3F" stroke-width="1.118" stroke-linecap="round" stroke-linejoin="round"/><path d="M368.333 234.616l11.33-7.026s-2.907 7.06-3.661 9.549M304.05 258.803c6.364 6.853 13.487 14.809 19.852 21.663M305.876 229.786a202.392 202.392 0 0125.488 35.851" stroke="#313D3F" stroke-width="1.118" stroke-linecap="round" stroke-linejoin="round"/><path d="M365.117 242.978s-21.489 30.588-23.799 33.001c-2.534 2.648-6.653 5.797-10.291 6.234-2.736.329-5.807-.198-7.593-2.297M326.584 270.636c10.591-9.383 20.223-18.201 30.814-27.584" stroke="#313D3F" stroke-width="1.118" stroke-linecap="round" stroke-linejoin="round"/><path d="M1079.27 138.588c4.39-4.574 9.61-11.051 10.57-14.411a25.37 25.37 0 00-.47-8.982" stroke="#313D3F" stroke-width="1.118"/><path d="M1077.79 152.796c2.91-1.836 13.18-8.236 15.92-10.549 4.05-3.427 9.04-6.337 11.12-11.393 1.37-3.321 1.05-7.009 1.05-10.515-.01-4.11-.11-8.219-.32-12.326-.42-8.332-.43-14.436-1.93-22.645-1.36-7.483-2.26-19.869-15.75-16.471" stroke="#313D3F" stroke-width="1.118"/><path d="M685.953 386.222a1.759 1.759 0 100-3.517 1.759 1.759 0 000 3.517zM698.067 386.222a1.758 1.758 0 100-3.516 1.758 1.758 0 000 3.516zM710.18 386.222a1.759 1.759 0 100-3.517 1.759 1.759 0 000 3.517zM722.294 386.222a1.758 1.758 0 100-3.516 1.758 1.758 0 000 3.516zM734.407 386.222a1.758 1.758 0 10.002-3.516 1.758 1.758 0 00-.002 3.516zM746.521 386.222a1.758 1.758 0 100-3.516 1.758 1.758 0 000 3.516zM758.634 386.222a1.758 1.758 0 10.002-3.516 1.758 1.758 0 00-.002 3.516zM770.748 386.222a1.758 1.758 0 100-3.516 1.758 1.758 0 000 3.516zM782.861 386.222a1.758 1.758 0 10.002-3.516 1.758 1.758 0 00-.002 3.516zM794.975 386.222a1.758 1.758 0 100-3.516 1.758 1.758 0 000 3.516zM807.089 386.222a1.758 1.758 0 100-3.516 1.758 1.758 0 000 3.516zM819.202 386.222a1.759 1.759 0 100-3.517 1.759 1.759 0 000 3.517zM831.316 386.222a1.758 1.758 0 100-3.516 1.758 1.758 0 000 3.516zM843.429 386.222a1.759 1.759 0 100-3.517 1.759 1.759 0 000 3.517zM855.543 386.222a1.758 1.758 0 100-3.516 1.758 1.758 0 000 3.516zM867.656 386.222a1.759 1.759 0 100-3.517 1.759 1.759 0 000 3.517zM879.77 386.222a1.758 1.758 0 100-3.516 1.758 1.758 0 000 3.516zM891.883 386.222a1.759 1.759 0 100-3.517 1.759 1.759 0 000 3.517zM903.997 386.222a1.758 1.758 0 100-3.516 1.758 1.758 0 000 3.516zM916.11 386.222a1.759 1.759 0 100-3.517 1.759 1.759 0 000 3.517zM928.224 386.222a1.758 1.758 0 100-3.516 1.758 1.758 0 000 3.516zM940.337 386.222a1.759 1.759 0 100-3.517 1.759 1.759 0 000 3.517zM685.953 397.75a1.76 1.76 0 10-.001-3.52 1.76 1.76 0 00.001 3.52zM698.067 397.75a1.759 1.759 0 10-.001-3.517 1.759 1.759 0 00.001 3.517zM710.18 397.75a1.76 1.76 0 10-.001-3.52 1.76 1.76 0 00.001 3.52zM722.294 397.75a1.759 1.759 0 10-.001-3.517 1.759 1.759 0 00.001 3.517zM734.407 397.75a1.759 1.759 0 100-3.518 1.759 1.759 0 000 3.518zM746.521 397.75a1.759 1.759 0 10-.001-3.517 1.759 1.759 0 00.001 3.517zM758.634 397.75a1.759 1.759 0 100-3.518 1.759 1.759 0 000 3.518zM770.748 397.75a1.759 1.759 0 10-.001-3.517 1.759 1.759 0 00.001 3.517zM782.861 397.75a1.759 1.759 0 100-3.518 1.759 1.759 0 000 3.518zM794.975 397.75a1.759 1.759 0 10-.001-3.517 1.759 1.759 0 00.001 3.517zM807.089 397.75a1.759 1.759 0 10-.001-3.517 1.759 1.759 0 00.001 3.517zM819.202 397.75a1.76 1.76 0 10-.001-3.52 1.76 1.76 0 00.001 3.52zM831.316 397.75a1.759 1.759 0 10-.001-3.517 1.759 1.759 0 00.001 3.517zM843.429 397.75a1.76 1.76 0 10-.001-3.52 1.76 1.76 0 00.001 3.52zM855.543 397.75a1.759 1.759 0 10-.001-3.517 1.759 1.759 0 00.001 3.517zM867.656 397.75a1.76 1.76 0 10-.001-3.52 1.76 1.76 0 00.001 3.52zM879.77 397.75a1.759 1.759 0 10-.001-3.517 1.759 1.759 0 00.001 3.517zM891.883 397.75a1.76 1.76 0 10-.001-3.52 1.76 1.76 0 00.001 3.52zM903.997 397.75a1.759 1.759 0 10-.001-3.517 1.759 1.759 0 00.001 3.517zM916.11 397.75a1.76 1.76 0 10-.001-3.52 1.76 1.76 0 00.001 3.52zM928.224 397.75a1.759 1.759 0 10-.001-3.517 1.759 1.759 0 00.001 3.517zM940.337 397.75a1.76 1.76 0 10-.001-3.52 1.76 1.76 0 00.001 3.52zM685.953 409.277a1.759 1.759 0 100-3.517 1.759 1.759 0 000 3.517zM698.067 409.277a1.758 1.758 0 100-3.516 1.758 1.758 0 000 3.516zM710.18 409.277a1.759 1.759 0 100-3.517 1.759 1.759 0 000 3.517zM722.294 409.277a1.758 1.758 0 100-3.516 1.758 1.758 0 000 3.516zM734.407 409.277a1.758 1.758 0 10.002-3.516 1.758 1.758 0 00-.002 3.516zM746.521 409.277a1.758 1.758 0 100-3.516 1.758 1.758 0 000 3.516zM758.634 409.277a1.758 1.758 0 10.002-3.516 1.758 1.758 0 00-.002 3.516zM770.748 409.277a1.758 1.758 0 100-3.516 1.758 1.758 0 000 3.516zM782.861 409.277a1.758 1.758 0 10.002-3.516 1.758 1.758 0 00-.002 3.516zM794.975 409.277a1.758 1.758 0 100-3.516 1.758 1.758 0 000 3.516zM807.089 409.277a1.758 1.758 0 100-3.516 1.758 1.758 0 000 3.516zM819.202 409.277a1.759 1.759 0 100-3.517 1.759 1.759 0 000 3.517zM831.316 409.277a1.758 1.758 0 100-3.516 1.758 1.758 0 000 3.516zM843.429 409.277a1.759 1.759 0 100-3.517 1.759 1.759 0 000 3.517zM855.543 409.277a1.758 1.758 0 100-3.516 1.758 1.758 0 000 3.516zM867.656 409.277a1.759 1.759 0 100-3.517 1.759 1.759 0 000 3.517zM879.77 409.277a1.758 1.758 0 100-3.516 1.758 1.758 0 000 3.516zM891.883 409.277a1.759 1.759 0 100-3.517 1.759 1.759 0 000 3.517zM903.997 409.277a1.758 1.758 0 100-3.516 1.758 1.758 0 000 3.516zM916.11 409.277a1.759 1.759 0 100-3.517 1.759 1.759 0 000 3.517zM928.224 409.277a1.758 1.758 0 100-3.516 1.758 1.758 0 000 3.516zM940.337 409.277a1.759 1.759 0 100-3.517 1.759 1.759 0 000 3.517zM952.842 386.222a1.758 1.758 0 100-3.516 1.758 1.758 0 000 3.516zM964.955 386.222a1.758 1.758 0 100-3.516 1.758 1.758 0 000 3.516zM977.069 386.222a1.758 1.758 0 100-3.516 1.758 1.758 0 000 3.516zM989.182 386.222a1.759 1.759 0 100-3.517 1.759 1.759 0 000 3.517zM1001.3 386.222c.97 0 1.75-.787 1.75-1.758s-.78-1.759-1.75-1.759a1.757 1.757 0 100 3.517zM1013.41 386.222c.97 0 1.76-.787 1.76-1.758a1.761 1.761 0 00-3.52 0c0 .971.79 1.758 1.76 1.758zM1025.52 386.222c.97 0 1.76-.787 1.76-1.758a1.761 1.761 0 00-3.52 0c0 .971.79 1.758 1.76 1.758zM1037.64 386.222c.97 0 1.75-.787 1.75-1.758s-.78-1.759-1.75-1.759-1.76.788-1.76 1.759c0 .971.79 1.758 1.76 1.758zM1049.75 386.222c.97 0 1.76-.787 1.76-1.758a1.761 1.761 0 00-3.52 0c0 .971.79 1.758 1.76 1.758zM952.842 397.75a1.759 1.759 0 10-.001-3.517 1.759 1.759 0 00.001 3.517zM964.955 397.75a1.759 1.759 0 10-.001-3.517 1.759 1.759 0 00.001 3.517zM977.069 397.75a1.759 1.759 0 10-.001-3.517 1.759 1.759 0 00.001 3.517zM989.182 397.75a1.76 1.76 0 10-.001-3.52 1.76 1.76 0 00.001 3.52zM1001.3 397.75c.97 0 1.75-.788 1.75-1.759 0-.971-.78-1.758-1.75-1.758a1.757 1.757 0 100 3.517zM1013.41 397.75c.97 0 1.76-.788 1.76-1.759a1.76 1.76 0 00-3.52 0c0 .971.79 1.759 1.76 1.759zM1025.52 397.75c.97 0 1.76-.788 1.76-1.759a1.76 1.76 0 00-3.52 0c0 .971.79 1.759 1.76 1.759zM1037.64 397.75c.97 0 1.75-.788 1.75-1.759 0-.971-.78-1.758-1.75-1.758s-1.76.787-1.76 1.758.79 1.759 1.76 1.759zM1049.75 397.75c.97 0 1.76-.788 1.76-1.759a1.76 1.76 0 00-3.52 0c0 .971.79 1.759 1.76 1.759zM952.842 409.277a1.758 1.758 0 100-3.516 1.758 1.758 0 000 3.516zM964.955 409.277a1.758 1.758 0 100-3.516 1.758 1.758 0 000 3.516zM977.069 409.277a1.758 1.758 0 100-3.516 1.758 1.758 0 000 3.516zM989.182 409.277a1.759 1.759 0 100-3.517 1.759 1.759 0 000 3.517zM1001.3 409.277c.97 0 1.75-.787 1.75-1.758a1.757 1.757 0 10-3.513 0c0 .971.783 1.758 1.763 1.758zM1013.41 409.277c.97 0 1.76-.787 1.76-1.758a1.76 1.76 0 00-3.52 0c0 .971.79 1.758 1.76 1.758zM1025.52 409.277c.97 0 1.76-.787 1.76-1.758a1.76 1.76 0 00-3.52 0c0 .971.79 1.758 1.76 1.758zM1037.64 409.277c.97 0 1.75-.787 1.75-1.758 0-.972-.78-1.759-1.75-1.759s-1.76.787-1.76 1.759c0 .971.79 1.758 1.76 1.758zM1049.75 409.277c.97 0 1.76-.787 1.76-1.758a1.76 1.76 0 00-3.52 0c0 .971.79 1.758 1.76 1.758zM626.424 457.317a1.758 1.758 0 100-3.516 1.758 1.758 0 000 3.516zM638.537 457.317a1.758 1.758 0 10.001-3.517 1.758 1.758 0 00-.001 3.517zM650.651 457.317a1.758 1.758 0 100-3.516 1.758 1.758 0 000 3.516zM662.764 457.317a1.758 1.758 0 10.001-3.517 1.758 1.758 0 00-.001 3.517zM674.878 457.317a1.758 1.758 0 100-3.516 1.758 1.758 0 000 3.516zM686.992 457.317a1.758 1.758 0 100-3.516 1.758 1.758 0 000 3.516zM699.105 457.317a1.758 1.758 0 100-3.516 1.758 1.758 0 000 3.516zM711.219 457.317a1.758 1.758 0 100-3.516 1.758 1.758 0 000 3.516zM723.332 457.317a1.759 1.759 0 100-3.518 1.759 1.759 0 000 3.518zM735.446 457.317a1.758 1.758 0 100-3.516 1.758 1.758 0 000 3.516zM747.559 457.317a1.759 1.759 0 100-3.518 1.759 1.759 0 000 3.518zM759.673 457.317a1.758 1.758 0 100-3.516 1.758 1.758 0 000 3.516zM771.786 457.317a1.758 1.758 0 100-3.516 1.758 1.758 0 000 3.516zM783.9 457.317a1.758 1.758 0 100-3.516 1.758 1.758 0 000 3.516zM796.013 457.317a1.759 1.759 0 100-3.518 1.759 1.759 0 000 3.518zM808.127 457.317a1.758 1.758 0 100-3.516 1.758 1.758 0 000 3.516zM820.24 457.317a1.759 1.759 0 100-3.518 1.759 1.759 0 000 3.518zM832.354 457.317a1.758 1.758 0 100-3.516 1.758 1.758 0 000 3.516zM844.467 457.317a1.759 1.759 0 100-3.518 1.759 1.759 0 000 3.518zM856.581 457.317a1.758 1.758 0 100-3.516 1.758 1.758 0 000 3.516zM868.694 457.317a1.758 1.758 0 10.001-3.517 1.758 1.758 0 00-.001 3.517zM880.808 457.317a1.758 1.758 0 100-3.516 1.758 1.758 0 000 3.516zM626.424 468.844a1.758 1.758 0 100-3.516 1.758 1.758 0 000 3.516zM638.537 468.844a1.758 1.758 0 10.002-3.516 1.758 1.758 0 00-.002 3.516zM650.651 468.844a1.758 1.758 0 100-3.516 1.758 1.758 0 000 3.516zM662.764 468.844a1.758 1.758 0 10.002-3.516 1.758 1.758 0 00-.002 3.516zM674.878 468.844a1.758 1.758 0 100-3.516 1.758 1.758 0 000 3.516zM686.992 468.844a1.758 1.758 0 100-3.516 1.758 1.758 0 000 3.516zM699.105 468.844a1.758 1.758 0 100-3.516 1.758 1.758 0 000 3.516zM711.219 468.844a1.758 1.758 0 100-3.516 1.758 1.758 0 000 3.516zM723.332 468.844a1.759 1.759 0 100-3.517 1.759 1.759 0 000 3.517zM735.446 468.844a1.758 1.758 0 100-3.516 1.758 1.758 0 000 3.516zM747.559 468.844a1.759 1.759 0 100-3.517 1.759 1.759 0 000 3.517zM759.673 468.844a1.758 1.758 0 100-3.516 1.758 1.758 0 000 3.516zM771.786 468.844a1.758 1.758 0 100-3.516 1.758 1.758 0 000 3.516zM783.9 468.844a1.758 1.758 0 100-3.516 1.758 1.758 0 000 3.516zM796.013 468.844a1.759 1.759 0 100-3.517 1.759 1.759 0 000 3.517zM808.127 468.844a1.758 1.758 0 100-3.516 1.758 1.758 0 000 3.516zM820.24 468.844a1.759 1.759 0 100-3.517 1.759 1.759 0 000 3.517zM832.354 468.844a1.758 1.758 0 100-3.516 1.758 1.758 0 000 3.516zM844.467 468.844a1.759 1.759 0 100-3.517 1.759 1.759 0 000 3.517zM856.581 468.844a1.758 1.758 0 100-3.516 1.758 1.758 0 000 3.516zM868.694 468.844a1.758 1.758 0 10.002-3.516 1.758 1.758 0 00-.002 3.516zM880.808 468.844a1.758 1.758 0 100-3.516 1.758 1.758 0 000 3.516zM626.424 480.372a1.759 1.759 0 10-.001-3.517 1.759 1.759 0 00.001 3.517zM638.537 480.372a1.759 1.759 0 100-3.518 1.759 1.759 0 000 3.518zM650.651 480.372a1.759 1.759 0 10-.001-3.517 1.759 1.759 0 00.001 3.517zM662.764 480.372a1.759 1.759 0 100-3.518 1.759 1.759 0 000 3.518zM674.878 480.372a1.759 1.759 0 10-.001-3.517 1.759 1.759 0 00.001 3.517zM686.992 480.372a1.759 1.759 0 10-.001-3.517 1.759 1.759 0 00.001 3.517zM699.105 480.372a1.759 1.759 0 10-.001-3.517 1.759 1.759 0 00.001 3.517zM711.219 480.372a1.759 1.759 0 10-.001-3.517 1.759 1.759 0 00.001 3.517zM723.332 480.372a1.76 1.76 0 10-.001-3.52 1.76 1.76 0 00.001 3.52zM735.446 480.372a1.759 1.759 0 10-.001-3.517 1.759 1.759 0 00.001 3.517zM747.559 480.372a1.76 1.76 0 10-.001-3.52 1.76 1.76 0 00.001 3.52zM759.673 480.372a1.759 1.759 0 10-.001-3.517 1.759 1.759 0 00.001 3.517zM771.786 480.372a1.759 1.759 0 10-.001-3.517 1.759 1.759 0 00.001 3.517zM783.9 480.372a1.759 1.759 0 10-.001-3.517 1.759 1.759 0 00.001 3.517zM796.013 480.372a1.76 1.76 0 10-.001-3.52 1.76 1.76 0 00.001 3.52zM808.127 480.372a1.759 1.759 0 10-.001-3.517 1.759 1.759 0 00.001 3.517zM820.24 480.372a1.76 1.76 0 10-.001-3.52 1.76 1.76 0 00.001 3.52zM832.354 480.372a1.759 1.759 0 10-.001-3.517 1.759 1.759 0 00.001 3.517zM844.467 480.372a1.76 1.76 0 10-.001-3.52 1.76 1.76 0 00.001 3.52zM856.581 480.372a1.759 1.759 0 10-.001-3.517 1.759 1.759 0 00.001 3.517zM868.694 480.372a1.759 1.759 0 100-3.518 1.759 1.759 0 000 3.518zM880.808 480.372a1.759 1.759 0 10-.001-3.517 1.759 1.759 0 00.001 3.517zM893.312 457.317a1.759 1.759 0 100-3.518 1.759 1.759 0 000 3.518zM905.426 457.317a1.758 1.758 0 100-3.516 1.758 1.758 0 000 3.516zM917.539 457.317a1.759 1.759 0 100-3.518 1.759 1.759 0 000 3.518zM929.653 457.317a1.758 1.758 0 100-3.516 1.758 1.758 0 000 3.516zM941.766 457.317a1.758 1.758 0 10.001-3.517 1.758 1.758 0 00-.001 3.517zM953.88 457.317a1.758 1.758 0 100-3.516 1.758 1.758 0 000 3.516zM965.993 457.317a1.759 1.759 0 100-3.518 1.759 1.759 0 000 3.518zM978.107 457.317a1.758 1.758 0 100-3.516 1.758 1.758 0 000 3.516zM990.221 457.317a1.758 1.758 0 100-3.516 1.758 1.758 0 000 3.516zM893.312 468.844a1.759 1.759 0 100-3.517 1.759 1.759 0 000 3.517zM905.426 468.844a1.758 1.758 0 100-3.516 1.758 1.758 0 000 3.516zM917.539 468.844a1.759 1.759 0 100-3.517 1.759 1.759 0 000 3.517zM929.653 468.844a1.758 1.758 0 100-3.516 1.758 1.758 0 000 3.516zM941.766 468.844a1.758 1.758 0 10.002-3.516 1.758 1.758 0 00-.002 3.516zM953.88 468.844a1.758 1.758 0 100-3.516 1.758 1.758 0 000 3.516zM965.993 468.844a1.759 1.759 0 100-3.517 1.759 1.759 0 000 3.517zM978.107 468.844a1.758 1.758 0 100-3.516 1.758 1.758 0 000 3.516zM990.221 468.844a1.758 1.758 0 100-3.516 1.758 1.758 0 000 3.516zM893.312 480.372a1.76 1.76 0 10-.001-3.52 1.76 1.76 0 00.001 3.52zM905.426 480.372a1.759 1.759 0 10-.001-3.517 1.759 1.759 0 00.001 3.517zM917.539 480.372a1.76 1.76 0 10-.001-3.52 1.76 1.76 0 00.001 3.52zM929.653 480.372a1.759 1.759 0 10-.001-3.517 1.759 1.759 0 00.001 3.517zM941.766 480.372a1.759 1.759 0 100-3.518 1.759 1.759 0 000 3.518zM953.88 480.372a1.759 1.759 0 10-.001-3.517 1.759 1.759 0 00.001 3.517zM965.993 480.372a1.76 1.76 0 10-.001-3.52 1.76 1.76 0 00.001 3.52zM978.107 480.372a1.759 1.759 0 10-.001-3.517 1.759 1.759 0 00.001 3.517zM990.221 480.372a1.759 1.759 0 10-.001-3.517 1.759 1.759 0 00.001 3.517z" fill="#D9D9DD"/><path d="M1049.29 377.388v35.623h-30.08v35.624h-30.081v35.624h-30.082v36.612h153.223V377.388h-62.98z" fill="#313D3F"/><path d="M1151.78 520.809h-78.13a5.324 5.324 0 01-5.09-3.782l-5.37-55.65a5.305 5.305 0 015.08-6.84h66.45c2.34 0 4.41 1.537 5.08 3.781l17.07 55.65a5.332 5.332 0 01-.83 4.699 5.305 5.305 0 01-4.26 2.142z" fill="#141B1C"/><path d="M1153.9 520.809h-63.26a5.303 5.303 0 01-5.08-3.782l-18.05-58.949c-1.02-3.409 1.37-8.036 4.93-8.036l63.42.133c2.34 0 4.41 1.537 5.08 3.782l18.05 60.011a5.328 5.328 0 01-.82 4.699 5.339 5.339 0 01-4.27 2.142z" fill="#37949B"/><path d="M1157.09 520.809h-63.26a5.303 5.303 0 01-5.08-3.782l-18.05-60.011a5.305 5.305 0 015.08-6.841h63.26c2.35 0 4.41 1.537 5.09 3.782l18.05 60.011a5.332 5.332 0 01-.83 4.699 5.305 5.305 0 01-4.26 2.142z" fill="#5DC8DD"/><path opacity=".3" d="M512.79 362.261l-19.175-7.59-7.59 19.174 19.175 7.591 7.59-19.175zM512.179 412.959l-70.881 13.467 13.467 70.881 70.881-13.467-13.467-70.881z" stroke="#B5B5B5" stroke-width="1.677"/><path d="M470.784 459.161l-27.024 15.731-19.316-33.182 46.34 17.451z" fill="#fff" stroke="#313D3F" stroke-width="1.118"/><path d="M503.15 458.817l21.161 7.537" stroke="#231F20" stroke-width="1.118"/><path d="M461.597 472.985c8.495 0 15.381-6.887 15.381-15.381 0-8.495-6.886-15.382-15.381-15.382-8.495 0-15.381 6.887-15.381 15.382 0 8.494 6.886 15.381 15.381 15.381z" fill="#5DC8DD"/><g clip-path="url(#clip0)"><path d="M459.89 420.081h64.791v64.792H459.89v-64.792z" fill="#F3F333"/><path d="M481.133 448.667l4.046-2.34c.78 1.323 1.49 2.442 3.194 2.442 1.632 0 2.661-.61 2.661-2.984v-16.144h4.969v16.211c0 4.918-3.017 7.156-7.418 7.156-3.974 0-6.281-1.967-7.452-4.341M498.127 447.996l3.978-2.313c1.047 1.717 2.408 2.979 4.816 2.979 2.024 0 3.315-1.017 3.315-2.419 0-1.682-1.326-2.278-3.559-3.259l-1.221-.526c-3.525-1.507-5.863-3.4-5.863-7.395 0-3.681 2.792-6.485 7.154-6.485 3.106 0 5.339 1.087 6.944 3.926l-3.804 2.454c-.837-1.508-1.744-2.103-3.14-2.103-1.431 0-2.338.911-2.338 2.103 0 1.472.907 2.068 3.001 2.979l1.221.526c4.153 1.787 6.491 3.61 6.491 7.71 0 4.417-3.455 6.835-8.096 6.835-4.537 0-7.468-2.173-8.899-5.012z" fill="#141414"/></g><path d="M503.622 458.815h-77.647v62.056h77.647v-62.056zM531.729 458.815h-28.107v62.056h28.107v-62.056z" fill="#fff" stroke="#313D3F" stroke-width="1.118"/><path d="M469.376 458.817h-13.904v31.593h13.904v-31.593z" stroke="#313D3F" stroke-width="1.118"/><path d="M503.623 458.815v7.125l-16.625 17.989h-61.023V465.94l77.648-7.125z" fill="#313D3F"/><path d="M487.001 476.811h-77.652l16.624-17.994h77.652l-16.624 17.994z" fill="#fff" stroke="#313D3F" stroke-width="1.118"/><path d="M531.73 466.153v17.776h-11.353l-16.623-17.989.261-6.603 27.513 6.603.202.213z" fill="#313D3F"/><path d="M520.376 476.811h27.779l-16.625-17.994h-27.779l16.625 17.994z" fill="#fff" stroke="#313D3F" stroke-width="1.118"/><path opacity=".3" d="M403.595 349.256l-11.089-26.586 32.645-13.616-21.556 40.202z" fill="#D9D9DD"/><path d="M413.779 339.931a6.662 6.662 0 100-13.323 6.662 6.662 0 000 13.323z" fill="#313D3F" opacity=".3"/><path d="M325.204 42.187h147.418c5.287 0 9.574 4.287 9.574 9.575v0c0 5.288-4.287 9.574-9.574 9.574H325.204c-5.288 0-9.575-4.286-9.575-9.574v0c0-5.288 4.287-9.575 9.575-9.575z" stroke="#313D3F"/><path d="M325.468 42.187h-.264c-5.288 0-9.575 4.287-9.575 9.575 0 5.288 4.287 9.574 9.575 9.574h.264a9.574 9.574 0 009.574-9.574c0-5.288-4.286-9.575-9.574-9.575z" fill="#313D3F"/><path clip-rule="evenodd" d="M384.75 75.754h87.872c5.287 0 9.574 4.286 9.574 9.574s-4.287 9.575-9.574 9.575H384.75c-5.287 0-9.574-4.287-9.574-9.575v0a9.574 9.574 0 019.574-9.574z" stroke="#313D3F" stroke-dasharray="5.84 5.84"/><path d="M419.932 94.903h38.519c5.288 0 9.575-4.287 9.575-9.575 0-5.288-4.287-9.574-9.575-9.574h-38.519c-5.288 0-9.575 4.286-9.575 9.574s4.287 9.575 9.575 9.575zM470.01 110.074h-36.052c-6.73 0-12.186 5.456-12.186 12.186 0 6.731 5.456 12.187 12.186 12.187h36.052c6.73 0 12.186-5.456 12.186-12.187 0-6.73-5.456-12.186-12.186-12.186z" fill="#313D3F"/><path d="M434.294 110.074h-.336c-6.73 0-12.186 5.456-12.186 12.186 0 6.731 5.456 12.187 12.186 12.187h.336c6.73 0 12.186-5.456 12.186-12.187 0-6.73-5.456-12.186-12.186-12.186z" fill="#3AB881"/><g clip-path="url(#clip1)"><path fill-rule="evenodd" clip-rule="evenodd" d="M445.985 124.852c-.033.839-.803 1.185-.946 1.209-.104.017-.16.02-.175-.061-.01-.056.027-.082.149-.158.121-.075.486-.325.551-.78.065-.454-.276-1.54-2.014-1.743-.81-.095-1.446.019-1.937.224.091.236.158.483.168.731.023.545-.353.948-.744 1.235-.228.168-.472.28-.675.347-.163.069-.38.14-.533.109-.339-.069-.52-.37-.289-1.034.125-.359.484-.907 1.064-1.378-.133-.272-.28-.55-.355-.804-.148-.502-.193-.806-.193-.806s-.478.991-1.094 1.893l-.107.154c.121.281.217.579.229.879.023.545-.213.957-.604 1.245a2.506 2.506 0 01-.631.332 2.245 2.245 0 01-.735.167c-.196.013-.384.001-.49-.079-.145-.109-.163-.245-.088-.429.064-.157.539-.699.937-1.174a9.36 9.36 0 00.309-.39l-.002-.004s.072-.094.189-.256c-.146-.314-.33-.64-.417-.936-.148-.502-.193-.806-.193-.806s-.484 1.242-.989 2.234a33.102 33.102 0 01-.769 1.437l-.002.009-.047.076-.023.038v-.004c-.131.194-.426.573-.718.573-.802 0-.508-1.629-.508-1.629s-.234.603-.499 1.121c-.215.423-.411.78-.84.78-.124 0-.32-.004-.482-.158-.369-.35-.651-1.239-.596-1.927.047-.586.138-.992.261-1.33a25.7 25.7 0 00-.733.414l-.398.235a.485.485 0 00.012.023c.33.638.418 2.034-.301 3.106-.718 1.073-2.056 1.726-3.359 1.363-.421-.117-1.056-.987-.508-2.199.483-1.069 2.415-2.081 2.924-2.332l.14-.078c-1.015-.887-3.549-2.085-3.904-3.925-.1-.518.142-1.757 1.663-3.18 1.28-1.198 3.059-2.115 4.703-2.699 2.761-.982 5.679-.403 6.128 1.358.441 1.731-1.061 3.803-2.985 4.547-1.717.665-3.138.56-3.721.368-.664-.218-1.053-.655-1.147-.902-.038-.097-.102-.259 0-.316.062-.034.087-.026.254.158.158.175.795.644 2.005.508 3.175-.356 5.087-2.824 4.483-4.153-.423-.93-2.871-1.349-5.928.175-3.732 1.861-3.935 3.396-3.967 3.978-.087 1.603 1.977 2.446 3.094 3.638l.043.047.646-.355c.563-.31 1.094-.6 1.342-.735.393-.571 1.191-1.202 1.767-1.202.921 0 .604 1.323.604 1.323s.019-.06.044-.061c.026 0 .127-.174.411-.07.293.107.226.312.228.333.003.04-.345 1.217-.491 1.971-.069.36-.028.622-.008.622.028 0 .087-.091.141-.19l-.001-.002s.041-.075.109-.209a.248.248 0 00.013-.028l.001.001c.08-.158.193-.388.323-.676.256-.563 1.231-2.738 1.314-2.979.082-.24.126-.489.166-.595.041-.107.385-.187.788-.184.403.003.444.174.447.21.003.036-.192.513-.236.85-.045.337-.002.506.035.788.024.186.139.421.276.687.417-.682 1.15-1.986 1.221-2.351.048-.25.126-.49.166-.596.041-.107.385-.187.788-.184.403.003.444.174.447.21.003.036-.192.513-.236.85-.045.337-.002.506.035.789.031.242.219.568.404.938a4.099 4.099 0 011.811-.421c1.806-.01 2.826 1.16 2.785 2.225zm-7.742.007l-.001-.048c-.126.164-.241.31-.34.434a19.9 19.9 0 01-.604.679s-.062.058-.035.074c.036.022.114-.006.199-.051.24-.151.78-.529.781-1.088zm-3.739-2.415c-.084-.142-.43-.027-.744.324-.195.219-.527.782-.683 1.253-.309.937-.175 1.888.044 1.945.255.068.675-1.184.875-1.673.126-.307.616-1.667.508-1.849zm-4.105 2.257a5.35 5.35 0 01-.09.054l.001.001-.039.022-.357.214c-.369.231-.925.605-1.355 1.012-.707.667-.854 1.592-.482 1.808.345.2 1.149-.037 1.725-.666.604-.66.854-1.495.597-2.445zm10.541-.438a1.107 1.107 0 00-.059-.336 2.432 2.432 0 00-.594.766c-.209.454-.219.6-.156.645.304-.109.805-.371.809-1.075z" fill="#fff"/></g><g clip-path="url(#clip2)" fill="#fff"><path d="M1132.45 482.297c-.59-.234-1.22-.45-1.87-.649-.57-.174-1.16-.335-1.77-.481a38.745 38.745 0 00-5.16-.849 48.156 48.156 0 00-9.23 0c-1.82.18-3.55.465-5.15.849-.62.146-1.21.307-1.78.481-.65.198-1.28.415-1.87.649-3.86 1.526-5.99 3.664-5.99 6.017s2.13 4.491 5.99 6.018c.59.233 1.22.45 1.87.649.57.174 1.16.335 1.77.48 1.61.384 3.34.669 5.16.85a46.67 46.67 0 004.62.223 46.67 46.67 0 004.61-.223c1.82-.18 3.55-.466 5.16-.85.61-.146 1.2-.306 1.77-.481a24.77 24.77 0 001.87-.648c3.87-1.527 6-3.665 6-6.018 0-2.353-2.13-4.491-6-6.017zm3 8.187c-.84.779-2.11 1.518-3.68 2.138-.53.208-1.08.402-1.66.58-.57.176-1.16.336-1.77.482-1.06.25-2.17.456-3.33.615-.77.107-1.56.193-2.37.256-1.17.094-2.38.141-3.6.141-1.23 0-2.44-.047-3.61-.14-.81-.064-1.6-.15-2.37-.257a35.517 35.517 0 01-3.33-.615c-.61-.145-1.2-.306-1.77-.482-.58-.178-1.13-.372-1.66-.58-1.57-.62-2.84-1.359-3.68-2.138-.77-.719-1.16-1.449-1.16-2.17 0-.721.39-1.451 1.16-2.17.84-.779 2.11-1.518 3.68-2.138.53-.208 1.08-.402 1.66-.58.57-.176 1.16-.336 1.77-.482 1.06-.25 2.17-.456 3.33-.615.77-.107 1.56-.193 2.37-.257 1.17-.093 2.38-.14 3.61-.14 1.22 0 2.43.047 3.6.141.81.063 1.6.149 2.37.256 1.16.159 2.27.365 3.33.615.61.146 1.2.306 1.77.482.58.178 1.13.372 1.66.58 1.57.62 2.84 1.359 3.68 2.138.77.72 1.16 1.449 1.16 2.17 0 .721-.39 1.451-1.16 2.17z"/><path d="M1130.91 497.063c-.09-.63-.22-1.279-.36-1.943-.14-.583-.29-1.177-.47-1.781a38.756 38.756 0 00-1.81-4.897 55.82 55.82 0 00-1.05-2.189c-.33-.645-.68-1.291-1.04-1.932-.37-.642-.75-1.271-1.14-1.883-.43-.694-.89-1.368-1.35-2.018a37.826 37.826 0 00-3.29-4.055c-.43-.459-.86-.894-1.29-1.305-.5-.467-1-.901-1.49-1.3-3.24-2.603-6.15-3.395-8.2-2.23-2.04 1.166-2.85 4.076-2.26 8.191.09.63.21 1.279.36 1.943.14.583.29 1.177.47 1.78a38.837 38.837 0 001.81 4.899c.33.727.68 1.459 1.05 2.19.33.645.68 1.29 1.04 1.931.37.642.75 1.27 1.13 1.882.44.694.89 1.367 1.36 2.018a37.742 37.742 0 003.29 4.056c.43.459.86.895 1.29 1.305.5.467 1 .901 1.49 1.3 3.24 2.603 6.16 3.395 8.2 2.229 2.04-1.166 2.85-4.075 2.26-8.191zm-5.63 6.659c-1.09-.338-2.36-1.076-3.68-2.131-.44-.356-.88-.742-1.33-1.157-.43-.407-.86-.842-1.29-1.302a34.01 34.01 0 01-2.18-2.582c-.48-.618-.95-1.264-1.4-1.935a47.91 47.91 0 01-1.91-3.061 44.396 44.396 0 01-1.66-3.201c-.35-.734-.67-1.466-.96-2.19a38.87 38.87 0 01-1.11-3.191c-.17-.604-.33-1.198-.46-1.779-.13-.592-.24-1.17-.32-1.732-.23-1.669-.22-3.139.04-4.25.24-1.025.68-1.727 1.31-2.084s1.45-.378 2.46-.065c1.09.338 2.36 1.076 3.68 2.131.44.356.88.742 1.33 1.157.43.408.86.842 1.29 1.302.74.79 1.47 1.655 2.18 2.582.48.618.95 1.265 1.4 1.936.66.973 1.3 1.997 1.91 3.061a44.188 44.188 0 011.66 3.201c.35.734.67 1.465.96 2.189.43 1.085.8 2.153 1.11 3.192.17.603.33 1.197.46 1.778.13.592.24 1.17.32 1.732.24 1.67.22 3.139-.04 4.25-.24 1.026-.68 1.727-1.31 2.084s-1.45.379-2.46.065z"/><path d="M1119.04 491.962c2.01 0 3.64-1.633 3.64-3.648a3.644 3.644 0 10-7.29 0 3.646 3.646 0 003.65 3.648z"/><path d="M1120.36 473.673c-.5.402-.99.84-1.48 1.31-.43.413-.87.851-1.29 1.313a39.32 39.32 0 00-3.27 4.077c-.45.653-.9 1.33-1.33 2.026-.39.615-.76 1.245-1.12 1.889-.36.645-.71 1.292-1.03 1.94a44.86 44.86 0 00-1.04 2.197 38.695 38.695 0 00-1.78 4.908c-.17.605-.32 1.2-.45 1.784-.15.665-.26 1.315-.35 1.945-.56 4.119.26 7.024 2.31 8.176 2.05 1.152 4.96.341 8.18-2.283.5-.401.99-.838 1.48-1.309.44-.413.87-.851 1.29-1.313a39.229 39.229 0 003.27-4.078c.45-.653.9-1.33 1.33-2.027.39-.614.76-1.245 1.12-1.889.36-.644.71-1.291 1.03-1.938.37-.733.72-1.466 1.04-2.197.73-1.67 1.33-3.322 1.78-4.91.17-.604.32-1.2.45-1.783.15-.665.26-1.315.35-1.945.56-4.12-.26-7.024-2.31-8.176-2.05-1.152-4.96-.342-8.18 2.283zm8.6 1.395c.27 1.109.3 2.579.07 4.249-.08.563-.18 1.142-.31 1.734a32.539 32.539 0 01-1.54 4.981c-.28.726-.6 1.459-.94 2.195a44.268 44.268 0 01-1.64 3.212 43.935 43.935 0 01-1.89 3.073c-.45.675-.91 1.324-1.38 1.945-.71.933-1.43 1.802-2.17 2.597-.42.462-.85.9-1.29 1.31-.43.418-.88.807-1.32 1.165-1.3 1.064-2.57 1.81-3.66 2.156-1 .32-1.83.303-2.46-.05-.63-.353-1.07-1.051-1.32-2.075-.27-1.109-.3-2.578-.07-4.249.08-.563.18-1.142.31-1.734.13-.582.28-1.177.45-1.782a35.4 35.4 0 011.09-3.199c.28-.726.6-1.46.94-2.196a44.044 44.044 0 011.64-3.211c.6-1.069 1.23-2.097 1.89-3.074.45-.674.91-1.323 1.38-1.944.71-.932 1.43-1.802 2.17-2.596.42-.463.85-.9 1.29-1.311.44-.418.88-.807 1.32-1.165 1.3-1.064 2.57-1.81 3.66-2.156 1-.319 1.83-.303 2.46.05.63.353 1.07 1.051 1.32 2.075z"/></g><defs><clipPath id="clip0"><path fill="#fff" transform="translate(459.89 420.081)" d="M0 0h64.791v64.792H0z"/></clipPath><clipPath id="clip1"><path fill="#fff" transform="translate(426 114)" d="M0 0h20v15H0z"/></clipPath><clipPath id="clip2"><path fill="#fff" transform="translate(1099 468)" d="M0 0h40v40H0z"/></clipPath></defs></svg>