<?xml version="1.0" standalone="no"?>
<!DOCTYPE svg PUBLIC "-//W3C//DTD SVG 20010904//EN"
 "http://www.w3.org/TR/2001/REC-SVG-20010904/DTD/svg10.dtd">
<svg version="1.0" xmlns="http://www.w3.org/2000/svg"
 width="830.000000pt" height="353.000000pt" viewBox="0 0 830.000000 353.000000"
 preserveAspectRatio="xMidYMid meet">

<g transform="translate(0.000000,353.000000) scale(0.100000,-0.100000)"
fill="#000000" stroke="none">
<path d="M1036 3448 c-19 -18 -874 -1482 -972 -1666 -21 -40 -22 -47 -10 -76
13 -31 916 -1598 962 -1668 l24 -38 994 0 c933 0 994 1 1008 18 14 16 935
1608 972 1679 14 27 14 37 4 62 -7 16 -229 404 -493 861 -352 611 -486 834
-503 841 -13 5 -443 9 -992 9 l-969 0 -25 -22z m2395 -908 c252 -437 458 -802
456 -811 -1 -9 -209 -375 -461 -813 l-460 -796 -930 0 -931 0 -460 796 c-253
438 -461 803 -463 810 -2 8 205 374 459 814 l462 800 935 -2 934 -3 459 -795z"/>
<path d="M1421 2783 c-19 -16 -582 -979 -601 -1028 -5 -13 -3 -33 5 -50 20
-50 566 -988 588 -1012 l20 -23 602 0 c466 0 605 3 617 12 13 11 538 910 591
1015 9 17 14 40 10 50 -12 35 -575 1008 -596 1031 l-20 22 -598 0 c-554 0
-598 -1 -618 -17z m1430 -573 c148 -256 268 -470 269 -476 0 -6 -120 -219
-268 -475 l-267 -464 -549 0 -548 0 -269 464 c-148 255 -269 468 -269 474 0 5
122 220 271 478 l271 469 546 -2 545 -3 268 -465z"/>
<path d="M1645 2166 c-2 -6 -6 -36 -10 -66 -3 -30 -8 -70 -11 -87 -5 -28 -3
-33 13 -33 13 0 23 13 33 42 24 67 55 83 163 83 121 0 143 -7 151 -46 10 -51
7 -715 -4 -743 -6 -16 -20 -28 -37 -32 -55 -12 -63 -16 -63 -28 0 -10 37 -13
165 -13 127 0 165 3 165 13 0 7 -21 19 -47 26 -41 12 -49 18 -54 43 -9 39 -11
679 -3 727 7 43 16 48 105 55 133 11 198 -16 214 -88 7 -29 29 -48 42 -36 3 4
0 49 -7 102 -11 83 -15 95 -29 88 -24 -11 -670 -16 -730 -5 -38 7 -54 6 -56
-2z"/>
<path d="M4515 2659 c-24 -19 -26 -27 -22 -68 9 -84 31 -181 42 -181 15 0 58
204 49 232 -13 42 -31 46 -69 17z"/>
<path d="M4110 2624 c0 -6 17 -14 39 -18 33 -5 39 -10 45 -37 8 -41 8 -507 0
-548 -5 -26 -13 -33 -45 -41 -22 -6 -39 -14 -39 -19 0 -5 61 -8 135 -8 74 0
135 3 135 7 0 5 -19 14 -42 22 l-43 13 -2 290 c-2 160 1 296 6 303 5 8 23 17
41 21 19 3 35 11 37 16 2 6 -49 10 -132 10 -93 0 -135 -3 -135 -11z"/>
<path d="M4770 2383 c-41 -6 -76 -12 -77 -12 -13 -3 2 -20 21 -25 52 -13 56
-26 56 -184 0 -81 -4 -153 -9 -160 -4 -7 -21 -16 -36 -20 -16 -5 -30 -13 -32
-19 -3 -7 36 -10 117 -10 81 0 120 3 117 10 -2 6 -16 14 -32 19 -15 4 -32 13
-36 20 -5 7 -9 77 -9 156 l0 142 33 20 c69 42 129 34 171 -23 18 -24 21 -46
25 -143 4 -143 0 -161 -41 -172 -17 -4 -33 -13 -35 -19 -3 -7 35 -10 117 -10
124 0 147 9 80 31 l-35 11 -6 150 c-3 83 -2 155 3 162 15 19 74 43 106 43 41
0 95 -39 109 -80 13 -40 17 -248 4 -268 -4 -7 -21 -16 -36 -20 -16 -5 -30 -13
-32 -19 -3 -7 36 -10 117 -10 124 0 147 9 80 31 l-35 11 -6 145 c-7 160 -18
202 -65 239 -25 20 -38 22 -95 19 -53 -3 -75 -10 -115 -35 l-49 -32 -26 29
c-49 53 -141 54 -215 1 -25 -17 -46 -31 -49 -31 -2 0 -5 15 -7 33 l-3 32 -75
-12z"/>
<path d="M6235 1374 c-22 -7 -57 -15 -77 -19 -44 -7 -51 -25 -10 -25 55 0 53
9 50 -336 l-3 -319 119 -3 c111 -2 123 -1 172 23 99 48 165 154 151 241 -9 53
-53 121 -99 151 -52 35 -157 44 -206 19 -55 -28 -55 -29 -50 134 2 83 2 149
-1 149 -4 -1 -24 -7 -46 -15z m202 -305 c38 -14 83 -57 99 -96 34 -79 5 -201
-59 -247 -38 -28 -128 -27 -165 1 -27 20 -27 21 -30 166 l-3 145 27 21 c30 23
85 28 131 10z"/>
<path d="M6835 1375 c-22 -7 -57 -16 -77 -20 -41 -6 -52 -25 -15 -25 52 -1 52
1 55 -287 2 -147 0 -283 -3 -300 -5 -26 -12 -34 -37 -41 -18 -4 -33 -13 -35
-19 -3 -7 35 -10 117 -10 114 0 155 10 90 23 -16 4 -34 12 -40 19 -7 9 -10
121 -8 344 2 182 1 331 -2 330 -3 0 -23 -7 -45 -14z"/>
<path d="M7546 1340 c-3 -8 -8 -39 -11 -67 -8 -66 12 -73 36 -14 14 34 24 42
60 51 49 14 177 6 194 -11 11 -11 14 -573 3 -584 -4 -4 -22 -10 -39 -14 -18
-4 -34 -11 -36 -18 -3 -7 36 -10 127 -10 133 0 158 9 90 31 l-35 11 -3 289
c-1 159 1 293 6 298 4 4 41 11 82 14 101 8 149 -8 173 -58 27 -55 41 -49 33
15 -3 28 -6 59 -6 67 0 13 -44 15 -335 15 -289 0 -336 -2 -339 -15z"/>
<path d="M4100 1342 c0 -4 20 -13 45 -20 l45 -12 -2 -298 -3 -297 -42 -13
c-24 -8 -43 -18 -43 -23 0 -13 374 -11 446 2 162 30 276 149 291 304 11 118
-34 218 -133 293 -79 61 -137 72 -385 72 -120 0 -219 -4 -219 -8z m461 -43
c123 -37 195 -185 170 -349 -17 -110 -56 -170 -136 -213 -33 -18 -58 -21 -140
-22 -136 0 -152 5 -165 56 -17 61 -9 501 8 522 23 27 179 31 263 6z"/>
<path d="M5079 1092 c-139 -72 -166 -242 -57 -349 55 -54 102 -73 180 -73 257
0 342 311 116 424 -75 37 -165 37 -239 -2z m169 -16 c162 -85 144 -358 -25
-373 -56 -5 -96 16 -135 69 -53 70 -62 156 -25 228 39 78 119 111 185 76z"/>
<path d="M5655 1110 c-22 -5 -57 -11 -77 -15 -38 -6 -53 -25 -20 -25 10 0 27
-7 38 -15 19 -12 22 -27 26 -137 9 -192 41 -248 143 -248 44 0 62 6 105 35 29
19 54 35 56 35 2 0 4 -16 4 -36 0 -34 1 -36 28 -30 15 3 48 9 75 12 54 8 64
31 15 36 -27 3 -33 8 -41 38 -5 19 -7 108 -5 198 4 144 3 162 -11 158 -9 -3
-34 -8 -56 -11 -79 -12 -95 -17 -95 -26 0 -5 9 -9 20 -9 12 0 32 -11 45 -25
24 -23 25 -30 25 -144 l0 -119 -30 -25 c-38 -32 -64 -40 -104 -33 -79 15 -100
74 -94 264 2 72 1 132 -2 131 -3 -1 -23 -5 -45 -9z"/>
<path d="M7170 1104 c-148 -64 -181 -276 -58 -379 47 -40 89 -55 150 -55 58 0
122 25 152 59 26 29 16 34 -27 16 -56 -23 -147 -20 -188 8 -48 32 -79 83 -79
128 l0 39 166 0 167 0 -5 44 c-7 62 -43 115 -92 137 -50 23 -137 24 -186 3z
m128 -28 c31 -16 76 -90 68 -111 -4 -12 -29 -15 -121 -15 -133 0 -140 5 -104
69 35 63 100 86 157 57z"/>
</g>
</svg>
